<?xml version="1.0" encoding="UTF-8" standalone="no"?>
<svg
   xmlns:sketch="http://www.bohemiancoding.com/sketch/ns"
   xmlns:dc="http://purl.org/dc/elements/1.1/"
   xmlns:cc="http://creativecommons.org/ns#"
   xmlns:rdf="http://www.w3.org/1999/02/22-rdf-syntax-ns#"
   xmlns:svg="http://www.w3.org/2000/svg"
   xmlns="http://www.w3.org/2000/svg"
   xmlns:sodipodi="http://sodipodi.sourceforge.net/DTD/sodipodi-0.dtd"
   xmlns:inkscape="http://www.inkscape.org/namespaces/inkscape"
   width="18"
   height="18"
   viewBox="0 0 18 18"
   version="1.1"
   id="svg2"
   inkscape:version="0.91 r13725"
   sodipodi:docname="node_parallel_one_children.svg">
  <metadata
     id="metadata16">
    <rdf:RDF>
      <cc:Work
         rdf:about="">
        <dc:format>image/svg+xml</dc:format>
        <dc:type
           rdf:resource="http://purl.org/dc/dcmitype/StillImage" />
        <dc:title>node_parallel_one_children</dc:title>
      </cc:Work>
    </rdf:RDF>
  </metadata>
  <sodipodi:namedview
     pagecolor="#61ffff"
     bordercolor="#666666"
     borderopacity="1"
     objecttolerance="10"
     gridtolerance="10"
     guidetolerance="10"
     inkscape:pageopacity="0"
     inkscape:pageshadow="2"
     inkscape:window-width="1920"
     inkscape:window-height="1017"
     id="namedview14"
     showgrid="false"
     inkscape:zoom="13.882353"
     inkscape:cx="6"
     inkscape:cy="8.5"
     inkscape:window-x="-8"
     inkscape:window-y="-8"
     inkscape:window-maximized="1"
     inkscape:current-layer="svg2" />
  <!-- Generator: Sketch 3.2.2 (9983) - http://www.bohemiancoding.com/sketch -->
  <title
     id="title4">node_parallel_one_children</title>
  <desc
     id="desc6">Created with Sketch.</desc>
  <defs
     id="defs8" />
  <g
     id="Workplaces"
     sketch:type="MSPage"
     style="fill:none;fill-rule:evenodd;stroke:none;stroke-width:1"
     transform="translate(2.5211864,0.71186441)">
    <g
       id="node_parallel_one_children"
       sketch:type="MSLayerGroup"
       transform="translate(-1,0)">
      <rect
         id="Rectangle-625"
         sketch:type="MSShapeGroup"
         x="0.01873409"
         y="0"
         width="13.962532"
         height="18"
         style="fill:#d8d8d8;fill-opacity:0" />
      <path
         d="m 5.3380466,16.85126 c 0,-1.971839 -3.154943,-2.760575 -3.154943,-5.126782 0,-2.3662071 1.5774715,-1.9718393 1.5774715,-1.9718393 0,0 0,-5.915518 0,-7.4929895 0,-1.57747148 1.9718393,-1.57747148 1.9718393,0 l 0,5.1267823 c 0,0 0,-1.5774715 1.1831036,-1.5774715 1.1831037,0 1.1831037,1.5774715 1.1831037,1.5774715 0,0 0,-1.1831036 0.7887357,-1.1831036 0.7887357,0 1.1831036,0.3943679 1.1831036,1.9718394 0,-0.7887358 1.577472,-1.9718394 1.971839,0.7887357 0.394368,2.760575 0,3.549311 -0.394367,4.732414 -0.394368,1.183104 -1.183104,1.577472 -1.183104,3.154943"
         id="Path-1184"
         sketch:type="MSShapeGroup"
         inkscape:connector-curvature="0"
         style="stroke:#ffffff" />
    </g>
  </g>
</svg>
