<?xml version="1.0" encoding="UTF-8" standalone="no"?>
<svg width="35px" height="35px" viewBox="0 0 35 35" version="1.1" xmlns="http://www.w3.org/2000/svg" xmlns:xlink="http://www.w3.org/1999/xlink" xmlns:sketch="http://www.bohemiancoding.com/sketch/ns">
    <!-- Generator: Sketch 3.2.2 (9983) - http://www.bohemiancoding.com/sketch -->
    <title>node_function_map</title>
    <desc>Created with Sketch.</desc>
    <defs></defs>
    <g id="Workplaces" stroke="none" stroke-width="1" fill="none" fill-rule="evenodd" sketch:type="MSPage">
        <g id="node_function_map" sketch:type="MSLayerGroup">
            <g id="function_bg" fill="#61B3FF" sketch:type="MSShapeGroup">
                <path d="M17.5,35 C27.1649831,35 35,27.1649831 35,17.5 C35,7.83501688 27.1649831,0 17.5,0 C7.83501688,0 0,7.83501688 0,17.5 C0,27.1649831 7.83501688,35 17.5,35 Z" id="Oval-35"></path>
            </g>
            <g id="gear%203-2-+-gear%203-2-+-Path-252" transform="translate(3.000000, 6.000000)" sketch:type="MSShapeGroup">
                <path d="M15.9648022,11.784752 L15.0063613,12.110072 C15.0347338,12.336368 15.0541926,12.565592 15.0541926,12.800024 C15.0541926,13.034504 15.0343433,13.26356 15.0058559,13.489784 L15.9648022,13.815272 C16.4474573,13.979096 16.7115862,14.520728 16.5547905,15.02492 C16.3979719,15.529208 15.8795008,15.805112 15.3968457,15.641312 L14.4371872,15.31556 C14.2244275,15.722072 13.9647095,16.098056 13.6612725,16.431176 L14.2543852,17.283992 C14.5526991,17.712944 14.4616772,18.313304 14.0511137,18.624968 C13.6405042,18.93656 13.0658394,18.841496 12.7675026,18.412568 L12.1762507,17.56244 C11.7825729,17.758808 11.3607983,17.90372 10.9188986,17.988632 L10.9188986,19.040024 C10.9188986,19.570208 10.5074851,20 10.0000184,20 C9.49248285,20 9.08102339,19.570208 9.08102339,19.040024 L9.08102339,17.988608 C8.63926158,17.90372 8.2213465,17.752544 7.82822007,17.555984 L7.23246537,18.412568 C6.93417449,18.841496 6.35948669,18.93656 5.94890023,18.624968 C5.53833674,18.313304 5.44729186,17.712944 5.74558274,17.283992 L6.34271587,16.425416 C6.04003701,16.092128 5.77340392,15.722792 5.56131047,15.316088 L4.60314521,15.641312 C4.12044422,15.805112 3.60201908,15.529208 3.44520041,15.02492 C3.2884277,14.520728 3.55253367,13.979096 4.03523466,13.815272 L4.99362966,13.489976 C4.96525711,13.26368 4.94579836,13.034456 4.94579836,12.800024 C4.94579836,12.565544 4.96564766,12.336464 4.99415805,12.11024 L4.03523466,11.784752 C3.55253367,11.620928 3.2884277,11.079344 3.44520041,10.57508 C3.60201908,10.070864 4.12044422,9.794912 4.60314521,9.958736 L5.56280376,10.284488 C5.77556345,9.877976 6.03528144,9.501968 6.33871844,9.168848 L5.74558274,8.316008 C5.44729186,7.887104 5.53833674,7.286768 5.94890023,6.97508 C6.35948669,6.66344 6.93417449,6.758528 7.23246537,7.18748 L7.8237402,8.037608 C8.21739502,7.84124 8.63914671,7.696328 9.08102339,7.611416 L9.08102339,6.560024 C9.08102339,6.029816 9.49248285,5.6 10.0000184,5.6 C10.5074851,5.6 10.9188986,6.029816 10.9188986,6.560024 L10.9188986,7.611416 C11.3606834,7.696304 11.7786215,7.847456 12.1717709,8.04404 L12.7675026,7.18748 C13.0658394,6.758528 13.6405042,6.66344 14.0511137,6.97508 C14.4616772,7.286768 14.5526991,7.887104 14.2543852,8.316008 L13.6572751,9.174584 C13.9599539,9.507896 14.226587,9.877232 14.4387034,10.28396 L15.3968457,9.958736 C15.8795008,9.794912 16.3979719,10.070864 16.5547905,10.57508 C16.7115862,11.079344 16.4474573,11.620928 15.9648022,11.784752 L15.9648022,11.784752 Z M6.4,12.8000257 C6.4,14.7882286 8.01172,16.4 10,16.4 C11.9882029,16.4 13.6,14.7882286 13.6,12.8000257 C13.6,10.8117714 11.9882029,9.2 10,9.2 C8.01172,9.2 6.4,10.8117714 6.4,12.8000257 Z" id="gear%203-2" fill="#000000"></path>
                <path d="M24.4745794,6.46676533 L23.782372,6.70171867 C23.8028633,6.86515467 23.8169169,7.03070533 23.8169169,7.20001733 C23.8169169,7.369364 23.8025813,7.53479333 23.782007,7.69817733 L24.4745794,7.933252 C24.8231636,8.05156933 25.0139234,8.442748 24.900682,8.80688667 C24.7874241,9.17109467 24.4129728,9.37035867 24.0643886,9.25205867 L23.3713018,9.01679333 C23.2176421,9.31038533 23.030068,9.58192933 22.810919,9.822516 L23.2392782,10.4384387 C23.4547271,10.7482373 23.3889891,11.1818307 23.092471,11.4069213 C22.7959197,11.63196 22.380884,11.5633027 22.1654185,11.2535213 L21.7384033,10.63954 C21.4540805,10.7813613 21.1494654,10.88602 20.8303157,10.9473453 L20.8303157,11.706684 C20.8303157,12.0895947 20.5331837,12.4 20.16668,12.4 C19.8001265,12.4 19.5029613,12.0895947 19.5029613,11.706684 L19.5029613,10.947328 C19.1839111,10.88602 18.8820836,10.7768373 18.5981589,10.6348773 L18.1678917,11.2535213 C17.9524594,11.5633027 17.5374071,11.63196 17.2408724,11.4069213 C16.9443543,11.1818307 16.8785997,10.7482373 17.094032,10.4384387 L17.5252948,9.818356 C17.3066934,9.577648 17.1141251,9.31090533 16.9609465,9.01717467 L16.2689382,9.25205867 C15.9203208,9.37035867 15.5459027,9.17109467 15.4326447,8.80688667 C15.31942,8.442748 15.5101632,8.05156933 15.8587806,7.933252 L16.5509548,7.698316 C16.5304635,7.53488 16.5164099,7.36932933 16.5164099,7.20001733 C16.5164099,7.03067067 16.5307455,6.865224 16.5513364,6.70184 L15.8587806,6.46676533 C15.5101632,6.348448 15.31942,5.957304 15.4326447,5.59311333 C15.5459027,5.22895733 15.9203208,5.02965867 16.2689382,5.147976 L16.9620249,5.38324133 C17.1156847,5.08964933 17.3032588,4.818088 17.5224078,4.57750133 L17.094032,3.96156133 C16.8785997,3.65179733 16.9443543,3.21822133 17.2408724,2.99311333 C17.5374071,2.76804 17.9524594,2.83671467 18.1678917,3.14651333 L18.5949235,3.76049467 C18.8792297,3.61867333 19.1838282,3.51401467 19.5029613,3.45268933 L19.5029613,2.69335067 C19.5029613,2.31042267 19.8001265,2 20.16668,2 C20.5331837,2 20.8303157,2.31042267 20.8303157,2.69335067 L20.8303157,3.45268933 C21.1493825,3.51399733 21.4512266,3.62316267 21.7351678,3.76514 L22.1654185,3.14651333 C22.380884,2.83671467 22.7959197,2.76804 23.092471,2.99311333 C23.3889891,3.21822133 23.4547271,3.65179733 23.2392782,3.96156133 L22.808032,4.581644 C23.0266334,4.82236933 23.2192017,5.089112 23.3723969,5.38286 L24.0643886,5.147976 C24.4129728,5.02965867 24.7874241,5.22895733 24.900682,5.59311333 C25.0139234,5.957304 24.8231636,6.348448 24.4745794,6.46676533 L24.4745794,6.46676533 Z M17.5666667,7.20001857 C17.5666667,8.63594286 18.7306867,9.8 20.1666667,9.8 C21.602591,9.8 22.7666667,8.63594286 22.7666667,7.20001857 C22.7666667,5.76405714 21.602591,4.6 20.1666667,4.6 C18.7306867,4.6 17.5666667,5.76405714 17.5666667,7.20001857 Z" id="gear%203-2" fill="#000000"></path>
                <path d="M6,5 C9,4 11,3 18,1 C25,-1 30,8 25,12 C20,16 20,16 16,19 C12,22 5,23 2,17 C-1,11 3,6 6,5 Z" id="Path-252" stroke="#000000"></path>
            </g>
        </g>
    </g>
</svg>