<?xml version="1.0" encoding="UTF-8" standalone="no"?>
<svg width="35px" height="35px" viewBox="0 0 35 35" version="1.1" xmlns="http://www.w3.org/2000/svg" xmlns:xlink="http://www.w3.org/1999/xlink" xmlns:sketch="http://www.bohemiancoding.com/sketch/ns">
    <!-- Generator: Sketch 3.2.2 (9983) - http://www.bohemiancoding.com/sketch -->
    <title>node_function</title>
    <desc>Created with Sketch.</desc>
    <defs></defs>
    <g id="Workplaces" stroke="none" stroke-width="1" fill="none" fill-rule="evenodd" sketch:type="MSPage">
        <g id="node_function" sketch:type="MSLayerGroup">
            <g id="function_bg" fill="#61B3FF" sketch:type="MSShapeGroup">
                <path d="M17.5,35 C27.1649831,35 35,27.1649831 35,17.5 C35,7.83501688 27.1649831,0 17.5,0 C7.83501688,0 0,7.83501688 0,17.5 C0,27.1649831 7.83501688,35 17.5,35 Z" id="Oval-35"></path>
            </g>
            <g id="gear%203-2-+-gear%203-2" transform="translate(5.400000, 7.000000)" fill="#000000" sketch:type="MSShapeGroup">
                <path d="M12.5648022,12.784752 L11.6063613,13.110072 C11.6347338,13.336368 11.6541926,13.565592 11.6541926,13.800024 C11.6541926,14.034504 11.6343433,14.26356 11.6058559,14.489784 L12.5648022,14.815272 C13.0474573,14.979096 13.3115862,15.520728 13.1547905,16.02492 C12.9979719,16.529208 12.4795008,16.805112 11.9968457,16.641312 L11.0371872,16.31556 C10.8244275,16.722072 10.5647095,17.098056 10.2612725,17.431176 L10.8543852,18.283992 C11.1526991,18.712944 11.0616772,19.313304 10.6511137,19.624968 C10.2405042,19.93656 9.66583942,19.841496 9.3675026,19.412568 L8.77625074,18.56244 C8.38257295,18.758808 7.96079828,18.90372 7.51889863,18.988632 L7.51889863,20.040024 C7.51889863,20.570208 7.10748511,21 6.60001844,21 C6.09248285,21 5.68102339,20.570208 5.68102339,20.040024 L5.68102339,18.988608 C5.23926158,18.90372 4.8213465,18.752544 4.42822007,18.555984 L3.83246537,19.412568 C3.53417449,19.841496 2.95948669,19.93656 2.54890023,19.624968 C2.13833674,19.313304 2.04729186,18.712944 2.34558274,18.283992 L2.94271587,17.425416 C2.64003701,17.092128 2.37340392,16.722792 2.16131047,16.316088 L1.20314521,16.641312 C0.720444218,16.805112 0.20201908,16.529208 0.045200415,16.02492 C-0.111572303,15.520728 0.152533671,14.979096 0.635234662,14.815272 L1.59362966,14.489976 C1.56525711,14.26368 1.54579836,14.034456 1.54579836,13.800024 C1.54579836,13.565544 1.56564766,13.336464 1.59415805,13.11024 L0.635234662,12.784752 C0.152533671,12.620928 -0.111572303,12.079344 0.045200415,11.57508 C0.20201908,11.070864 0.720444218,10.794912 1.20314521,10.958736 L2.16280376,11.284488 C2.37556345,10.877976 2.63528144,10.501968 2.93871844,10.168848 L2.34558274,9.316008 C2.04729186,8.887104 2.13833674,8.286768 2.54890023,7.97508 C2.95948669,7.66344 3.53417449,7.758528 3.83246537,8.18748 L4.4237402,9.037608 C4.81739502,8.84124 5.23914671,8.696328 5.68102339,8.611416 L5.68102339,7.560024 C5.68102339,7.029816 6.09248285,6.6 6.60001844,6.6 C7.10748511,6.6 7.51889863,7.029816 7.51889863,7.560024 L7.51889863,8.611416 C7.96068341,8.696304 8.37862146,8.847456 8.77177087,9.04404 L9.3675026,8.18748 C9.66583942,7.758528 10.2405042,7.66344 10.6511137,7.97508 C11.0616772,8.286768 11.1526991,8.887104 10.8543852,9.316008 L10.2572751,10.174584 C10.5599539,10.507896 10.826587,10.877232 11.0387034,11.28396 L11.9968457,10.958736 C12.4795008,10.794912 12.9979719,11.070864 13.1547905,11.57508 C13.3115862,12.079344 13.0474573,12.620928 12.5648022,12.784752 L12.5648022,12.784752 Z M3,13.8000257 C3,15.7882286 4.61172,17.4 6.6,17.4 C8.58820286,17.4 10.2,15.7882286 10.2,13.8000257 C10.2,11.8117714 8.58820286,10.2 6.6,10.2 C4.61172,10.2 3,11.8117714 3,13.8000257 Z" id="gear%203-2"></path>
                <path d="M24.5648022,6.184752 L23.6063613,6.510072 C23.6347338,6.736368 23.6541926,6.965592 23.6541926,7.200024 C23.6541926,7.434504 23.6343433,7.66356 23.6058559,7.889784 L24.5648022,8.215272 C25.0474573,8.379096 25.3115862,8.920728 25.1547905,9.42492 C24.9979719,9.929208 24.4795008,10.205112 23.9968457,10.041312 L23.0371872,9.71556 C22.8244275,10.122072 22.5647095,10.498056 22.2612725,10.831176 L22.8543852,11.683992 C23.1526991,12.112944 23.0616772,12.713304 22.6511137,13.024968 C22.2405042,13.33656 21.6658394,13.241496 21.3675026,12.812568 L20.7762507,11.96244 C20.3825729,12.158808 19.9607983,12.30372 19.5188986,12.388632 L19.5188986,13.440024 C19.5188986,13.970208 19.1074851,14.4 18.6000184,14.4 C18.0924829,14.4 17.6810234,13.970208 17.6810234,13.440024 L17.6810234,12.388608 C17.2392616,12.30372 16.8213465,12.152544 16.4282201,11.955984 L15.8324654,12.812568 C15.5341745,13.241496 14.9594867,13.33656 14.5489002,13.024968 C14.1383367,12.713304 14.0472919,12.112944 14.3455827,11.683992 L14.9427159,10.825416 C14.640037,10.492128 14.3734039,10.122792 14.1613105,9.716088 L13.2031452,10.041312 C12.7204442,10.205112 12.2020191,9.929208 12.0452004,9.42492 C11.8884277,8.920728 12.1525337,8.379096 12.6352347,8.215272 L13.5936297,7.889976 C13.5652571,7.66368 13.5457984,7.434456 13.5457984,7.200024 C13.5457984,6.965544 13.5656477,6.736464 13.5941581,6.51024 L12.6352347,6.184752 C12.1525337,6.020928 11.8884277,5.479344 12.0452004,4.97508 C12.2020191,4.470864 12.7204442,4.194912 13.2031452,4.358736 L14.1628038,4.684488 C14.3755635,4.277976 14.6352814,3.901968 14.9387184,3.568848 L14.3455827,2.716008 C14.0472919,2.287104 14.1383367,1.686768 14.5489002,1.37508 C14.9594867,1.06344 15.5341745,1.158528 15.8324654,1.58748 L16.4237402,2.437608 C16.817395,2.24124 17.2391467,2.096328 17.6810234,2.011416 L17.6810234,0.960024 C17.6810234,0.429816 18.0924829,0 18.6000184,0 C19.1074851,0 19.5188986,0.429816 19.5188986,0.960024 L19.5188986,2.011416 C19.9606834,2.096304 20.3786215,2.247456 20.7717709,2.44404 L21.3675026,1.58748 C21.6658394,1.158528 22.2405042,1.06344 22.6511137,1.37508 C23.0616772,1.686768 23.1526991,2.287104 22.8543852,2.716008 L22.2572751,3.574584 C22.5599539,3.907896 22.826587,4.277232 23.0387034,4.68396 L23.9968457,4.358736 C24.4795008,4.194912 24.9979719,4.470864 25.1547905,4.97508 C25.3115862,5.479344 25.0474573,6.020928 24.5648022,6.184752 L24.5648022,6.184752 Z M15,7.20002571 C15,9.18822857 16.61172,10.8 18.6,10.8 C20.5882029,10.8 22.2,9.18822857 22.2,7.20002571 C22.2,5.21177143 20.5882029,3.6 18.6,3.6 C16.61172,3.6 15,5.21177143 15,7.20002571 Z" id="gear%203-2"></path>
            </g>
        </g>
    </g>
</svg>