<?xml version="1.0" encoding="UTF-8" standalone="no"?>
<svg width="35px" height="35px" viewBox="0 0 35 35" version="1.1" xmlns="http://www.w3.org/2000/svg" xmlns:xlink="http://www.w3.org/1999/xlink" xmlns:sketch="http://www.bohemiancoding.com/sketch/ns">
    <!-- Generator: Sketch 3.2.2 (9983) - http://www.bohemiancoding.com/sketch -->
    <title>node_function_assign</title>
    <desc>Created with Sketch.</desc>
    <defs></defs>
    <g id="Workplaces" stroke="none" stroke-width="1" fill="none" fill-rule="evenodd" sketch:type="MSPage">
        <g id="node_function_assign" sketch:type="MSLayerGroup">
            <g id="function_bg" fill="#61B3FF" sketch:type="MSShapeGroup">
                <path d="M17.5,35 C27.1649831,35 35,27.1649831 35,17.5 C35,7.83501688 27.1649831,0 17.5,0 C7.83501688,0 0,7.83501688 0,17.5 C0,27.1649831 7.83501688,35 17.5,35 Z" id="Oval-35"></path>
            </g>
            <g id="assign" transform="translate(3.904286, 9.916564)" fill="#231F20" sketch:type="MSShapeGroup">
                <path d="M6.51849173,13.3988293 C2.92418023,13.3988293 0,10.4040423 0,6.72294322 C0,3.04184412 2.92418023,0.0470571754 6.51849173,0.0470571754 C8.98395738,0.0470571754 11.2109588,1.44570322 12.3304701,3.69723794 C12.5301844,4.0988497 12.3741377,4.59023185 11.981949,4.79481507 C11.5897604,4.9992584 11.1099633,4.83949042 10.9102945,4.43787866 C10.0642179,2.73629835 8.38139931,1.67924614 6.51849173,1.67924614 C3.8029506,1.67924614 1.59370759,3.94183312 1.59370759,6.72294322 C1.59370759,9.50405331 3.8029506,11.7666403 6.51849173,11.7666403 C7.50700025,11.7666403 8.45416344,11.4740588 9.25752867,10.9204203 C10.0428622,10.3792797 10.6544817,9.61732723 11.0263164,8.71696516 C11.1977538,8.30192282 11.6652566,8.1077856 12.0706502,8.28326923 C12.4759529,8.45884613 12.6655585,8.93768374 12.4941211,9.35281935 C11.479066,11.8107094 9.13349269,13.3988293 6.51849173,13.3988293 L6.51849173,13.3988293 Z" id="Shape"></path>
                <path d="M20.7789977,13.504711 C18.1776951,13.504711 15.8458215,11.8961774 14.838203,9.40682279 C14.6677488,8.98570414 14.8628891,8.502795 15.2741253,8.3282251 C15.6853155,8.15374952 16.1568393,8.35350731 16.3272934,8.77467313 C16.6959276,9.68544598 17.3016132,10.4557516 18.0789044,11.0022436 C18.871256,11.5593957 19.8049542,11.8538674 20.7789977,11.8538674 C23.4621883,11.8538674 25.645116,9.5653083 25.645116,6.7523791 C25.645116,3.93940273 23.4621883,1.65089077 20.7789977,1.65089077 C18.9411694,1.65089077 17.2795062,2.71779073 16.4425261,4.43518881 C16.2437474,4.84305317 15.7597884,5.00870827 15.3614019,4.80512985 C14.9631536,4.60155143 14.8014041,4.10581252 15.0001828,3.69790099 C16.1118423,1.41693597 18.3261343,0 20.7789977,0 C24.3510277,0 27.2570845,3.02910156 27.2570845,6.7523791 C27.2570845,10.4756095 24.3509816,13.504711 20.7789977,13.504711 L20.7789977,13.504711 Z" id="Shape"></path>
                <path d="M22.4943147,6.22440863 L20.3860841,4.06527307 C20.1116527,3.78421531 19.6667157,3.78421531 19.3922843,4.06527307 C19.1178128,4.34633083 19.1178128,4.80205237 19.3922843,5.08311013 L20.3008715,6.01359474 L6.63744897,6.01359474 C6.24933376,6.01359474 5.93470544,6.33582002 5.93470544,6.73330659 C5.93470544,7.13079317 6.24933376,7.45301845 6.63744897,7.45301845 L20.2787852,7.45301845 L19.2763115,8.46119081 C18.9993904,8.73965761 18.9953747,9.19537915 19.2672763,9.47898675 C19.4048935,9.62247673 19.5867234,9.69440679 19.7687139,9.69440679 C19.9464076,9.69440679 20.124262,9.62580797 20.2610761,9.48819906 L22.489777,7.24681072 C22.6235392,7.11228629 22.6992749,6.9285747 22.7001182,6.73655558 C22.7009615,6.54453646 22.6269124,6.36016684 22.4943147,6.22440863 L22.4943147,6.22440863 Z" id="Shape"></path>
            </g>
        </g>
    </g>
</svg>