<?xml version="1.0" encoding="UTF-8" standalone="no"?>
<svg width="13px" height="16px" viewBox="0 0 13 16" version="1.1" xmlns="http://www.w3.org/2000/svg" xmlns:xlink="http://www.w3.org/1999/xlink" xmlns:sketch="http://www.bohemiancoding.com/sketch/ns">
    <!-- Generator: Sketch 3.2.2 (9983) - http://www.bohemiancoding.com/sketch -->
    <title>node_parallel_rule_success_all</title>
    <desc>Created with Sketch.</desc>
    <defs></defs>
    <g id="Workplaces" stroke="none" stroke-width="1" fill="none" fill-rule="evenodd" sketch:type="MSPage">
        <g id="node_parallel_rule_success_all" sketch:type="MSLayerGroup" transform="translate(-2.000000, -1.000000)">
            <rect id="Rectangle-625" fill-opacity="0" fill="#D8D8D8" sketch:type="MSShapeGroup" x="0.00934358014" y="0.175659802" width="17" height="17"></rect>
            <path d="M8.76926066,16.2945038 C11.5298357,16.2945038 11.9242036,14.3226645 12.3185715,12.745193 C12.7129394,11.1677215 12.7129394,10.7733536 13.1073072,9.59025001 C13.5016751,8.4071464 13.896043,6.82967492 14.2904108,5.64657131 C14.6847787,4.4634677 13.1073072,4.06909983 12.7129394,5.25220344 C12.3185715,6.43530705 11.5965053,8.10198729 11.5965053,8.10198729 C11.3418814,8.70612873 11.2198764,8.67951544 11.3243897,8.02417626 C11.3243897,8.02417626 11.9242036,4.4634677 11.9242036,3.28036409 C11.9242036,2.09726048 10.7411,1.70289261 10.3467321,3.28036409 C9.95236427,4.85783557 9.70776139,5.51998276 9.70776139,5.51998276 C9.40724511,6.46110913 9.16362853,6.4174659 9.16362853,5.41860898 C9.16362853,5.41860898 9.16362853,3.28036409 9.16362853,2.09726048 C9.16362853,0.914156867 7.58615705,0.519788996 7.58615705,2.09726048 C7.58615705,3.67473196 7.26412232,6.86282876 7.26412232,6.86282876 C7.22417383,7.28012512 7.13564613,7.29072506 7.06269806,6.87813596 C7.06269806,6.87813596 6.79742131,5.25220344 6.40305344,3.67473196 C6.00868557,2.09726048 4.82558196,2.09726048 4.82558196,3.67473196 C4.82558196,5.25220344 5.81033151,9.27764426 5.81033151,9.27764426 C6.1101613,10.5913089 5.57081063,10.89111 4.57213637,9.95791578 C4.57213637,9.95791578 4.35322136,9.65624456 3.64247835,9.19588214 C2.93173533,8.73551972 2.35322136,9.65624456 2.8537426,10.7733536 C3.35426385,11.8904627 6.00868557,16.2945038 8.76926066,16.2945038 Z" id="Path-1185" fill="#00C21E" sketch:type="MSShapeGroup"></path>
        </g>
    </g>
</svg>