<?xml version="1.0" encoding="UTF-8" standalone="no"?>
<svg width="35px" height="35px" viewBox="0 0 35 35" version="1.1" xmlns="http://www.w3.org/2000/svg" xmlns:xlink="http://www.w3.org/1999/xlink" xmlns:sketch="http://www.bohemiancoding.com/sketch/ns">
    <!-- Generator: Sketch 3.2.2 (9983) - http://www.bohemiancoding.com/sketch -->
    <title>node_parallel</title>
    <desc>Created with Sketch.</desc>
    <defs></defs>
    <g id="Workplaces" stroke="none" stroke-width="1" fill="none" fill-rule="evenodd" sketch:type="MSPage">
        <g id="node_parallel" sketch:type="MSLayerGroup">
            <circle id="Oval-35" fill="#FFE500" sketch:type="MSShapeGroup" cx="17.5" cy="17.5" r="17.5"></circle>
            <g id="Path-1179-+-Path-1180-+-Path-1179-+-Path-1180-+-Path-1179-+-Path-1180-+-Path-1179-+-Path-1180" transform="translate(3.000000, 4.000000)" fill="#000000" sketch:type="MSShapeGroup">
                <g id="Path-1179-+-Path-1180-+-Path-1179-+-Path-1180" transform="translate(0.000000, 6.000000)">
                    <g id="Path-1179-+-Path-1180" transform="translate(7.917859, 12.804645) rotate(-32.000000) translate(-7.917859, -12.804645) translate(2.048294, 8.565515)">
                        <path d="M3.24125822,2.413902 C2.94163619,3.27196581 2.71643802,3.8041019 2.57811736,3.79550644 C2.43979671,3.78691098 0.917862331,3.34022531 0.34938519,2.37072907 C-0.219091951,1.40123283 0.199206969,0.651146735 1.12319855,0.27740954 C2.04719013,-0.0963276548 3.52153453,0.692325077 3.59373376,0.883645687 C3.66593299,1.0749663 3.54088026,1.55583819 3.24125822,2.413902 L3.24125822,2.413902 Z" id="Path-1179"></path>
                        <path d="M4.89320554,3.35629817 C4.38652235,4.65870916 4.231497,5.15170421 4.32526839,5.34870489 C4.41903978,5.54570557 5.16074275,7.0309687 7.40098388,7.87906239 C9.64122501,8.72715608 11.4441684,7.04350167 11.6012828,6.30361673 C11.850701,5.20645781 10.7402831,3.40955251 9.37837507,2.6792393 C8.01646708,1.9489261 6.89309642,1.42006862 5.75510301,1.55185598 C5.45346481,1.61255496 5.39988872,2.05388717 4.89320554,3.35629817 L4.89320554,3.35629817 L4.89320554,3.35629817 Z" id="Path-1180"></path>
                    </g>
                    <g id="Path-1179-+-Path-1180" transform="translate(6.917859, 5.804645) scale(1, -1) rotate(-11.000000) translate(-6.917859, -5.804645) translate(1.048294, 1.565515)">
                        <path d="M3.24125822,2.413902 C2.94163619,3.27196581 2.71643802,3.8041019 2.57811736,3.79550644 C2.43979671,3.78691098 0.917862331,3.34022531 0.34938519,2.37072907 C-0.219091951,1.40123283 0.199206969,0.651146735 1.12319855,0.27740954 C2.04719013,-0.0963276548 3.52153453,0.692325077 3.59373376,0.883645687 C3.66593299,1.0749663 3.54088026,1.55583819 3.24125822,2.413902 L3.24125822,2.413902 Z" id="Path-1179"></path>
                        <path d="M4.89320554,3.35629817 C4.38652235,4.65870916 4.231497,5.15170421 4.32526839,5.34870489 C4.41903978,5.54570557 5.16074275,7.0309687 7.40098388,7.87906239 C9.64122501,8.72715608 11.4441684,7.04350167 11.6012828,6.30361673 C11.850701,5.20645781 10.7402831,3.40955251 9.37837507,2.6792393 C8.01646708,1.9489261 6.89309642,1.42006862 5.75510301,1.55185598 C5.45346481,1.61255496 5.39988872,2.05388717 4.89320554,3.35629817 L4.89320554,3.35629817 L4.89320554,3.35629817 Z" id="Path-1180"></path>
                    </g>
                </g>
                <g id="Path-1179-+-Path-1180-+-Path-1179-+-Path-1180" transform="translate(22.000000, 12.000000) rotate(16.000000) translate(-22.000000, -12.000000) translate(14.000000, 2.000000)">
                    <g id="Path-1179-+-Path-1180" transform="translate(7.917859, 12.804645) rotate(-32.000000) translate(-7.917859, -12.804645) translate(2.048294, 8.565515)">
                        <path d="M3.24125822,2.413902 C2.94163619,3.27196581 2.71643802,3.8041019 2.57811736,3.79550644 C2.43979671,3.78691098 0.917862331,3.34022531 0.34938519,2.37072907 C-0.219091951,1.40123283 0.199206969,0.651146735 1.12319855,0.27740954 C2.04719013,-0.0963276548 3.52153453,0.692325077 3.59373376,0.883645687 C3.66593299,1.0749663 3.54088026,1.55583819 3.24125822,2.413902 L3.24125822,2.413902 Z" id="Path-1179"></path>
                        <path d="M4.89320554,3.35629817 C4.38652235,4.65870916 4.231497,5.15170421 4.32526839,5.34870489 C4.41903978,5.54570557 5.16074275,7.0309687 7.40098388,7.87906239 C9.64122501,8.72715608 11.4441684,7.04350167 11.6012828,6.30361673 C11.850701,5.20645781 10.7402831,3.40955251 9.37837507,2.6792393 C8.01646708,1.9489261 6.89309642,1.42006862 5.75510301,1.55185598 C5.45346481,1.61255496 5.39988872,2.05388717 4.89320554,3.35629817 L4.89320554,3.35629817 L4.89320554,3.35629817 Z" id="Path-1180"></path>
                    </g>
                    <g id="Path-1179-+-Path-1180" transform="translate(6.917859, 5.804645) scale(1, -1) rotate(-11.000000) translate(-6.917859, -5.804645) translate(1.048294, 1.565515)">
                        <path d="M3.24125822,2.413902 C2.94163619,3.27196581 2.71643802,3.8041019 2.57811736,3.79550644 C2.43979671,3.78691098 0.917862331,3.34022531 0.34938519,2.37072907 C-0.219091951,1.40123283 0.199206969,0.651146735 1.12319855,0.27740954 C2.04719013,-0.0963276548 3.52153453,0.692325077 3.59373376,0.883645687 C3.66593299,1.0749663 3.54088026,1.55583819 3.24125822,2.413902 L3.24125822,2.413902 Z" id="Path-1179"></path>
                        <path d="M4.89320554,3.35629817 C4.38652235,4.65870916 4.231497,5.15170421 4.32526839,5.34870489 C4.41903978,5.54570557 5.16074275,7.0309687 7.40098388,7.87906239 C9.64122501,8.72715608 11.4441684,7.04350167 11.6012828,6.30361673 C11.850701,5.20645781 10.7402831,3.40955251 9.37837507,2.6792393 C8.01646708,1.9489261 6.89309642,1.42006862 5.75510301,1.55185598 C5.45346481,1.61255496 5.39988872,2.05388717 4.89320554,3.35629817 L4.89320554,3.35629817 L4.89320554,3.35629817 Z" id="Path-1180"></path>
                    </g>
                </g>
            </g>
        </g>
    </g>
</svg>