<?xml version="1.0" encoding="UTF-8" standalone="no"?>
<svg width="35px" height="35px" viewBox="0 0 35 35" version="1.1" xmlns="http://www.w3.org/2000/svg" xmlns:xlink="http://www.w3.org/1999/xlink" xmlns:sketch="http://www.bohemiancoding.com/sketch/ns">
    <!-- Generator: Sketch 3.2.2 (9983) - http://www.bohemiancoding.com/sketch -->
    <title>node_root</title>
    <desc>Created with Sketch.</desc>
    <defs></defs>
    <g id="Workplaces" stroke="none" stroke-width="1" fill="none" fill-rule="evenodd" sketch:type="MSPage">
        <g id="node_root" sketch:type="MSLayerGroup">
            <circle id="Oval-35" fill="#FF3710" sketch:type="MSShapeGroup" cx="17.5" cy="17.5" r="17.5"></circle>
            <path d="M19,16.8292943 L19,25 L17,25 L17,16.8292943 C16.8266379,16.7680196 16.6605895,16.6912624 16.5035161,16.6006842 L10.1598205,23 L9,21.9089206 L15.3837638,15.4691852 C15.1393938,15.034959 15,14.5337581 15,14 C15,12.3431458 16.3431458,11 18,11 C19.6568542,11 21,12.3431458 21,14 C21,14.3804852 20.9291679,14.7444268 20.7999706,15.0793576 L26,21.9959427 L24.7633327,23 L19.8009481,16.3995073 C19.5596247,16.580921 19.2900485,16.7267769 19,16.8292943 Z" id="Rectangle-227" stroke="#000000" fill="#000000" sketch:type="MSShapeGroup"></path>
        </g>
    </g>
</svg>