<?xml version="1.0" encoding="UTF-8" standalone="no"?>
<svg
   xmlns:sketch="http://www.bohemiancoding.com/sketch/ns"
   xmlns:dc="http://purl.org/dc/elements/1.1/"
   xmlns:cc="http://creativecommons.org/ns#"
   xmlns:rdf="http://www.w3.org/1999/02/22-rdf-syntax-ns#"
   xmlns:svg="http://www.w3.org/2000/svg"
   xmlns="http://www.w3.org/2000/svg"
   xmlns:sodipodi="http://sodipodi.sourceforge.net/DTD/sodipodi-0.dtd"
   xmlns:inkscape="http://www.inkscape.org/namespaces/inkscape"
   width="35px"
   height="35px"
   viewBox="0 0 35 35"
   version="1.1"
   id="svg4136"
   inkscape:version="0.91 r13725"
   sodipodi:docname="node_gyro_rorate_left.svg">
  <metadata
     id="metadata4153">
    <rdf:RDF>
      <cc:Work
         rdf:about="">
        <dc:format>image/svg+xml</dc:format>
        <dc:type
           rdf:resource="http://purl.org/dc/dcmitype/StillImage" />
        <dc:title>node_function_range</dc:title>
      </cc:Work>
    </rdf:RDF>
  </metadata>
  <sodipodi:namedview
     pagecolor="#ffffff"
     bordercolor="#666666"
     borderopacity="1"
     objecttolerance="10"
     gridtolerance="10"
     guidetolerance="10"
     inkscape:pageopacity="0"
     inkscape:pageshadow="2"
     inkscape:window-width="1920"
     inkscape:window-height="1057"
     id="namedview4151"
     showgrid="false"
     inkscape:zoom="15.657143"
     inkscape:cx="17.5"
     inkscape:cy="17.5"
     inkscape:window-x="1912"
     inkscape:window-y="-8"
     inkscape:window-maximized="1"
     inkscape:current-layer="svg4136" />
  <!-- Generator: Sketch 3.2.2 (9983) - http://www.bohemiancoding.com/sketch -->
  <title
     id="title4138">node_function_range</title>
  <desc
     id="desc4140">Created with Sketch.</desc>
  <defs
     id="defs4142" />
  <g
     id="Workplaces"
     stroke="none"
     stroke-width="1"
     fill="none"
     fill-rule="evenodd"
     sketch:type="MSPage">
    <g
       id="node_function_range"
       sketch:type="MSLayerGroup">
      <g
         id="function_bg"
         fill="#61B3FF"
         sketch:type="MSShapeGroup">
        <path
           d="M17.5,35 C27.1649831,35 35,27.1649831 35,17.5 C35,7.83501688 27.1649831,0 17.5,0 C7.83501688,0 0,7.83501688 0,17.5 C0,27.1649831 7.83501688,35 17.5,35 Z"
           id="Oval-35" />
      </g>
      <path
         d="M29.8805681,18.8072316 C29.9605546,18.7226375 30,18.6113904 30,18.5007228 C30,18.391214 29.9605546,18.2805463 29.8805681,18.1953728 L25.1372582,13.1289961 C24.977833,12.9580696 24.7176029,12.9569108 24.5565342,13.126099 C24.3954655,13.2941284 24.3938219,13.5705079 24.5537949,13.7402755 L28.6079059,18.0707992 L17.4108896,18.0707992 C17.1835307,18.0707992 17,18.2654816 17,18.5053581 C17,18.745814 17.1835307,18.9399169 17.4108896,18.9399169 L28.5991403,18.9399169 L24.5537949,23.2594318 C24.3938219,23.4291995 24.3954655,23.7044201 24.5565342,23.8741877 C24.7176029,24.043376 24.977833,24.0416377 25.1372582,23.8707112 L29.8805681,18.8072316 L29.8805681,18.8072316 Z"
         id="Fill-109"
         stroke="#000000"
         fill="#000000"
         sketch:type="MSShapeGroup" />
      <path
         d="M6.11943192,18.1927684 C6.0394454,18.2773625 6,18.3886096 6,18.4992772 C6,18.608786 6.0394454,18.7194537 6.11943192,18.8046272 L10.8627418,23.8710039 C11.022167,24.0419304 11.2823971,24.0430892 11.4434658,23.873901 C11.6045345,23.7058716 11.6061781,23.4294921 11.4462051,23.2597245 L7.39209406,18.9292008 L18.5891104,18.9292008 C18.8164693,18.9292008 19,18.7345184 19,18.4946419 C19,18.254186 18.8164693,18.0600831 18.5891104,18.0600831 L7.40085971,18.0600831 L11.4462051,13.7405682 C11.6061781,13.5708005 11.6045345,13.2955799 11.4434658,13.1258123 C11.2823971,12.956624 11.022167,12.9583623 10.8627418,13.1292888 L6.11943192,18.1927684 L6.11943192,18.1927684 Z"
         id="path4149"
         stroke="#000000"
         fill="#000000"
         sketch:type="MSShapeGroup" />
    </g>
  </g>
</svg>
