<?xml version="1.0" encoding="UTF-8" standalone="no"?>
<svg width="35px" height="35px" viewBox="0 0 35 35" version="1.1" xmlns="http://www.w3.org/2000/svg" xmlns:xlink="http://www.w3.org/1999/xlink" xmlns:sketch="http://www.bohemiancoding.com/sketch/ns">
    <!-- Generator: Sketch 3.2.2 (9983) - http://www.bohemiancoding.com/sketch -->
    <title>node_sequence</title>
    <desc>Created with Sketch.</desc>
    <defs></defs>
    <g id="Workplaces" stroke="none" stroke-width="1" fill="none" fill-rule="evenodd" sketch:type="MSPage">
        <g id="node_sequence" sketch:type="MSLayerGroup">
            <circle id="Oval-35" fill="#FFE500" sketch:type="MSShapeGroup" cx="17.5" cy="17.5" r="17.5"></circle>
            <g id="Path-1177-+-Path-1178-+-Path-1179-+-Path-1180" transform="translate(17.723316, 18.021507) rotate(-7.000000) translate(-17.723316, -18.021507) translate(3.223316, 8.021507)" fill="#000000" sketch:type="MSShapeGroup">
                <g id="Path-1177-+-Path-1178" transform="translate(8.248350, 5.238606) rotate(-10.000000) translate(-8.248350, -5.238606) translate(1.093975, 1.386251)">
                    <path d="M6.28457403,3.54241836 C6.21137159,5.68589242 6.07573764,6.1415952 6.23873262,6.23382912 C6.40172761,6.32606304 8.23449212,7.80994058 11.4510955,7.36565972 C14.6676989,6.92137886 14.3559566,4.72532052 14.1891069,4.33713766 C14.0222572,3.94895479 13.7484071,2.0742264 11.2339962,1.04920791 C8.71958529,0.0241894218 6.62622253,1.30604338 6.62622253,1.30604338 C6.62622253,1.30604338 6.35777648,1.3989443 6.28457403,3.54241836 L6.28457403,3.54241836 Z" id="Path-1177"></path>
                    <path d="M4.30397498,6.12286503 C4.0911455,6.34516024 2.29589524,6.70631855 1.22968208,5.58888741 C0.163468923,4.47145628 0.102964779,2.93165947 1.08324011,2.10933157 C2.06351544,1.28700366 2.72217194,1.13338364 3.5045202,1.15991992 C4.28686846,1.1864562 4.44267045,1.24401902 4.51460036,1.59072997 C4.69442511,2.45750734 4.69893464,5.39161577 4.30397498,6.12286503 L4.30397498,6.12286503 Z" id="Path-1178"></path>
                </g>
                <g id="Path-1179-+-Path-1180" transform="translate(20.823590, 13.933875) rotate(-11.000000) translate(-20.823590, -13.933875) translate(13.894360, 9.450256)">
                    <path d="M3.9355175,3.17916542 C3.56879889,4.22938179 3.29317044,4.88068305 3.12387461,4.87016275 C2.95457879,4.85964244 1.09182642,4.31292715 0.396045994,3.12632446 C-0.299734429,1.93972178 0.212237255,1.02166336 1.34314509,0.564232439 C2.47405292,0.106801516 4.27855815,1.07206307 4.36692548,1.30622752 C4.45529282,1.54039197 4.3022361,2.12894905 3.9355175,3.17916542 L3.9355175,3.17916542 Z" id="Path-1179"></path>
                    <path d="M5.61419182,3.77841707 C5.21218621,5.31027625 5.10220059,5.88494367 5.23691116,6.09264382 C5.37162174,6.30034396 6.42709662,7.86138267 9.1141516,8.49681583 C11.8012066,9.132249 13.6379514,6.99026697 13.7163404,6.13845106 C13.85144,4.87299668 12.3300204,3.01443498 10.6669155,2.38734289 C9.00381055,1.76025079 7.64212313,1.32546087 6.35462059,1.63355628 C6.01690109,1.74411502 6.01619743,2.2465579 5.61419182,3.77841707 L5.61419182,3.77841707 Z" id="Path-1180"></path>
                </g>
            </g>
        </g>
    </g>
</svg>