<?xml version="1.0" encoding="UTF-8" standalone="no"?>
<svg width="11px" height="17px" viewBox="0 0 11 17" version="1.1" xmlns="http://www.w3.org/2000/svg" xmlns:xlink="http://www.w3.org/1999/xlink" xmlns:sketch="http://www.bohemiancoding.com/sketch/ns">
    <!-- Generator: Sketch 3.2.2 (9983) - http://www.bohemiancoding.com/sketch -->
    <title>node_parallel_rule_success_one</title>
    <desc>Created with Sketch.</desc>
    <defs></defs>
    <g id="Workplaces" stroke="none" stroke-width="1" fill="none" fill-rule="evenodd" sketch:type="MSPage">
        <g id="node_parallel_rule_success_one" sketch:type="MSLayerGroup" transform="translate(-4.000000, 0.000000)">
            <path d="M7.25586181,16.5134601 C7.25586181,14.5416208 4.10091885,13.752885 4.10091885,11.3866778 C4.10091885,9.02047057 5.67839033,9.41483844 5.67839033,9.41483844 C5.67839033,9.41483844 5.67839033,3.49932039 5.67839033,1.9218489 C5.67839033,0.344377424 7.65022968,0.344377424 7.65022968,1.9218489 L7.65022968,7.04863122 C7.65022968,7.04863122 7.65022968,5.47115974 8.83333329,5.47115974 C10.0164369,5.47115974 10.0164369,7.04863122 10.0164369,7.04863122 C10.0164369,7.04863122 10.0164369,5.86552761 10.8051726,5.86552761 C11.5939084,5.86552761 11.9882763,6.25989548 11.9882763,7.83736696 C11.9882763,7.04863122 13.5657477,5.86552761 13.9601156,8.6261027 C14.3544835,11.3866778 13.9601156,12.1754135 13.5657477,13.3585171 C13.1713799,14.5416208 12.3826441,14.9359886 12.3826441,16.5134601" id="Path-1184" fill="#00C21E" sketch:type="MSShapeGroup"></path>
            <rect id="Rectangle-625" fill-opacity="0" fill="#D8D8D8" sketch:type="MSShapeGroup" x="0.612193488" y="0.126102698" width="17" height="17"></rect>
        </g>
    </g>
</svg>