<?xml version="1.0" encoding="UTF-8" standalone="no"?>
<svg width="35px" height="35px" viewBox="0 0 35 35" version="1.1" xmlns="http://www.w3.org/2000/svg" xmlns:xlink="http://www.w3.org/1999/xlink" xmlns:sketch="http://www.bohemiancoding.com/sketch/ns">
    <!-- Generator: Sketch 3.2.2 (9983) - http://www.bohemiancoding.com/sketch -->
    <title>node_delay</title>
    <desc>Created with Sketch.</desc>
    <defs></defs>
    <g id="Workplaces" stroke="none" stroke-width="1" fill="none" fill-rule="evenodd" sketch:type="MSPage">
        <g id="node_delay" sketch:type="MSLayerGroup">
            <circle id="Oval-35" fill="#FB87FF" sketch:type="MSShapeGroup" cx="17.5" cy="17.5" r="17.5"></circle>
            <path d="M22.8248242,9.89188436 L23.4544022,9.26672377 L23.8527349,9.66317825 C23.9741271,9.78326042 24.1356757,9.84925978 24.3069172,9.84925978 C24.4781588,9.84925978 24.6387842,9.78326042 24.7624843,9.66271993 L25.0652725,9.36068119 C25.1866648,9.24059903 25.2545152,9.07972559 25.2535921,8.90922725 C25.2535921,8.73827058 25.1866648,8.57785547 25.0652725,8.45868996 L23.7798072,7.18178571 C23.5370227,6.93978806 23.1128423,6.94024639 22.8709809,7.18086905 L22.5663464,7.48428277 C22.3166384,7.73269702 22.3166384,8.13740142 22.5663464,8.38489901 L22.9646791,8.78089516 L22.1892458,9.55042935 C20.9670152,8.95093518 19.6040065,8.59756361 18.1611467,8.55493903 L18.1611467,7.5498238 C18.1611467,7.36007564 18.0065216,7.20607714 17.8149711,7.20607714 C17.6243438,7.20607714 17.4692571,7.36007564 17.4692571,7.5498238 L17.4692571,8.55998065 C16.0637842,8.6163551 14.7367778,8.9656017 13.5440875,9.55088768 L12.7677311,8.78043684 L13.1646791,8.38581567 C13.4157718,8.13877641 13.4176181,7.73453034 13.1674485,7.48336611 L12.8623524,7.18178571 C12.6204911,6.94024639 12.1981569,6.9388714 11.9530646,7.18086905 L10.6680608,8.45777331 C10.5466686,8.57785547 10.4792797,8.73827058 10.4792797,8.90922725 C10.4788181,9.07972559 10.5457454,9.24059903 10.6671377,9.35976454 L10.9722337,9.66363658 C11.0931644,9.78326042 11.2542514,9.84925978 11.4259545,9.84925978 C11.5985808,9.84925978 11.7601294,9.78280209 11.8796753,9.66317825 L12.2784696,9.26672377 L12.9085092,9.89234269 C10.015866,11.5858679 8.06666667,14.7025043 8.06666667,18.2701363 C8.06666667,23.6353341 12.462635,28 17.8675898,28 C23.2706983,28 27.6666667,23.6353341 27.6666667,18.2701363 C27.6666667,14.7025043 25.7170058,11.5854096 22.8248242,9.89188436 L22.8248242,9.89188436 Z M23.3247017,7.70244731 L24.5404704,8.90968558 L24.3073788,9.14205832 L23.0916101,7.93436173 L23.3247017,7.70244731 L23.3247017,7.70244731 Z M11.425493,9.14205832 L11.1919398,8.90968558 L12.4072469,7.70198899 L12.6417232,7.93344507 L11.425493,9.14205832 L11.425493,9.14205832 Z M17.8675898,27.3125067 C12.8443513,27.3125067 8.75901783,23.2562961 8.75901783,18.2701363 C8.75901783,13.2839764 12.8443513,9.22730749 17.8675898,9.22730749 C22.888982,9.22730749 26.9743155,13.2839764 26.9743155,18.2701363 C26.9743155,23.2562961 22.888982,27.3125067 17.8675898,27.3125067 L17.8675898,27.3125067 Z M18.1611467,17.1211058 L18.1611467,12.3920684 C18.1611467,12.2023202 18.0065216,12.0483217 17.8149711,12.0483217 C17.6243438,12.0483217 17.4692571,12.2023202 17.4692571,12.3920684 L17.4692571,17.1192724 C17.0293833,17.263646 16.7099786,17.6701838 16.7099786,18.1546374 C16.7099786,18.6386327 17.0293833,19.0447121 17.4692571,19.189544 L17.4692571,20.2322422 C17.4692571,20.4219903 17.6243438,20.5759888 17.8149711,20.5759888 C18.0065216,20.5759888 18.1611467,20.4219903 18.1611467,20.2322422 L18.1611467,19.1877107 C18.5977895,19.0419621 18.9148863,18.636341 18.9148863,18.1546374 C18.9148863,17.6724754 18.5977895,17.2668543 18.1611467,17.1211058 L18.1611467,17.1211058 Z M17.8126633,18.5616334 C17.5860337,18.5616334 17.4023298,18.3787602 17.4023298,18.1546374 C17.4023298,17.9300562 17.5860337,17.7467247 17.8126633,17.7467247 C18.0388313,17.7467247 18.2225352,17.9300562 18.2225352,18.1546374 C18.2225352,18.3787602 18.0388313,18.5616334 17.8126633,18.5616334 L17.8126633,18.5616334 Z" id="Fill-159" stroke="#000000" fill="#000000" sketch:type="MSShapeGroup"></path>
        </g>
    </g>
</svg>