<?xml version="1.0" encoding="UTF-8" standalone="no"?>
<svg width="11px" height="18px" viewBox="0 0 11 18" version="1.1" xmlns="http://www.w3.org/2000/svg" xmlns:xlink="http://www.w3.org/1999/xlink" xmlns:sketch="http://www.bohemiancoding.com/sketch/ns">
    <!-- Generator: Sketch 3.2.2 (9983) - http://www.bohemiancoding.com/sketch -->
    <title>node_parallel_rule_failure_one</title>
    <desc>Created with Sketch.</desc>
    <defs></defs>
    <g id="Workplaces" stroke="none" stroke-width="1" fill="none" fill-rule="evenodd" sketch:type="MSPage">
        <g id="node_parallel_rule_failure_one" sketch:type="MSLayerGroup" transform="translate(-3.000000, 0.000000)">
            <rect id="Rectangle-625" fill-opacity="0" fill="#D8D8D8" sketch:type="MSShapeGroup" x="0.0187340903" y="0.175659802" width="17" height="17"></rect>
            <path d="M6.66240241,17.0269794 C6.66240241,14.9391495 3.50745945,14.1040175 3.50745945,11.5986217 C3.50745945,9.09322578 5.08493093,9.51079176 5.08493093,9.51079176 L5.08493093,1.57703814 C5.08493093,-0.0932257824 7.05677028,-0.0932257824 7.05677028,1.57703814 L7.05677028,7.00539588 C7.05677028,7.00539588 7.05677028,5.33513196 8.23987389,5.33513196 C9.42297751,5.33513196 9.42297751,7.00539588 9.42297751,7.00539588 C9.42297751,7.00539588 9.42297751,5.75269794 10.2117132,5.75269794 C11.000449,5.75269794 11.3948169,6.17026392 11.3948169,7.84052784 C11.3948169,7.00539588 12.9722883,5.75269794 13.3666562,8.6756598 C13.7610241,11.5986217 13.3666562,12.4337536 12.9722883,13.6864516 C12.5779205,14.9391495 11.7891847,15.3567155 11.7891847,17.0269794" id="Path-1184" fill="#FF0000" sketch:type="MSShapeGroup"></path>
        </g>
    </g>
</svg>