<?xml version="1.0" encoding="UTF-8" standalone="no"?>
<svg width="14px" height="18px" viewBox="0 0 14 18" version="1.1" xmlns="http://www.w3.org/2000/svg" xmlns:xlink="http://www.w3.org/1999/xlink" xmlns:sketch="http://www.bohemiancoding.com/sketch/ns">
    <!-- Generator: Sketch 3.2.2 (9983) - http://www.bohemiancoding.com/sketch -->
    <title>node_parallel_all_children</title>
    <desc>Created with Sketch.</desc>
    <defs></defs>
    <g id="Workplaces" stroke="none" stroke-width="1" fill="none" fill-rule="evenodd" sketch:type="MSPage">
        <g id="node_parallel_all_children" sketch:type="MSLayerGroup">
            <rect id="Rectangle-625" fill-opacity="0" fill="#D8D8D8" sketch:type="MSShapeGroup" x="0.0187340903" y="0" width="13.9625318" height="18"></rect>
            <path d="M7.41603929,16.6382592 C10.1766144,16.6382592 10.5709823,14.6664199 10.9653501,13.0889484 C11.359718,11.5114769 11.359718,11.1171091 11.7540859,9.93400545 C12.1484537,8.75090184 12.5428216,7.17343036 12.9371895,5.99032674 C13.3315573,4.80722313 11.7540859,4.41285526 11.359718,5.59595887 C10.9653501,6.77906248 10.2432839,8.44574272 10.2432839,8.44574272 C9.98866,9.04988417 9.86665506,9.02327087 9.97116838,8.3679317 C9.97116838,8.3679317 10.5709823,4.80722313 10.5709823,3.62411952 C10.5709823,2.44101591 9.38787865,2.04664804 8.99351078,3.62411952 C8.5991429,5.201591 8.35454002,5.86373819 8.35454002,5.86373819 C8.05402374,6.80486456 7.81040716,6.76122134 7.81040716,5.76236441 C7.81040716,5.76236441 7.81040716,3.62411952 7.81040716,2.44101591 C7.81040716,1.2579123 6.23293568,0.863544432 6.23293568,2.44101591 C6.23293568,4.01848739 5.91090096,7.20658419 5.91090096,7.20658419 C5.87095247,7.62388055 5.78242477,7.63448049 5.7094767,7.2218914 C5.7094767,7.2218914 5.44419994,5.59595887 5.04983207,4.01848739 C4.6554642,2.44101591 3.47236059,2.44101591 3.47236059,4.01848739 C3.47236059,5.59595887 4.45711015,9.62139969 4.45711015,9.62139969 C4.75693993,10.9350644 4.21758927,11.2348655 3.21891501,10.3016712 C3.21891501,10.3016712 3,10 2.28925698,9.53963758 C1.57851396,9.07927515 1,10 1.50052124,11.1171091 C2.00104248,12.2342181 4.6554642,16.6382592 7.41603929,16.6382592 Z" id="Path-1185" stroke="#FFFFFF" sketch:type="MSShapeGroup"></path>
        </g>
    </g>
</svg>