<?xml version="1.0" encoding="UTF-8" standalone="no"?>
<svg width="34px" height="35px" viewBox="0 0 34 35" version="1.1" xmlns="http://www.w3.org/2000/svg" xmlns:xlink="http://www.w3.org/1999/xlink" xmlns:sketch="http://www.bohemiancoding.com/sketch/ns">
    <!-- Generator: Sketch 3.2.2 (9983) - http://www.bohemiancoding.com/sketch -->
    <title>node_error</title>
    <desc>Created with Sketch.</desc>
    <defs></defs>
    <g id="Pages" stroke="none" stroke-width="1" fill="none" fill-rule="evenodd" sketch:type="MSPage">
        <g id="Desktop-HD" sketch:type="MSArtboardGroup" transform="translate(-1230.000000, -715.000000)">
            <g id="node_error" sketch:type="MSLayerGroup" transform="translate(1228.000000, 714.000000)">
                <g id="Path-1247-+-Path-1248" transform="translate(2.000000, 17.550000)" sketch:type="MSShapeGroup">
                    <path d="M18,0 L6,11.7" id="Path-1247" stroke="#FF0000"></path>
                    <path d="M6,6.825 L11,11.7 L0,17.55 L6,6.825 Z" id="Path-1248" fill="#FF0000"></path>
                </g>
                <g id="Rectangle-654-+-Shape-+-Rectangle-660" sketch:type="MSShapeGroup">
                    <g id="Rectangle-654-+-Shape" transform="translate(16.000000, 1.950000)">
                        <rect id="Rectangle-654" fill="#FF0000" x="0" y="0" width="20" height="19.5" rx="4"></rect>
                        <path d="M10,3.65665625 C6.54875,3.65665625 3.75,6.38482812 3.75,9.74979687 C3.75,13.1151719 6.54875,15.8433437 10,15.8433437 C13.4516667,15.8433437 16.25,13.1151719 16.25,9.74979687 C16.25,6.38482812 13.4516667,3.65665625 10,3.65665625 L10,3.65665625 Z M13.26625,12.9518594 C13.0902083,13.1235 12.8677083,13.2092187 12.5991667,13.2092187 C12.3302083,13.2092187 12.0983333,13.1092812 11.9025,12.909 L9.99666667,11.0794531 L8.09083333,12.9518594 C7.915,13.1046094 7.69479167,13.1903281 7.43125,13.2092187 C7.16729167,13.2281094 6.9375,13.1427969 6.74208333,12.9518594 C6.56625,12.7804219 6.470625,12.5685625 6.45604167,12.3156719 C6.44166667,12.0633906 6.52666667,11.8415781 6.7125,11.65125 L8.6625,9.75 L6.71270833,7.84895312 C6.526875,7.66796875 6.44395833,7.45834375 6.46333333,7.219875 C6.48291667,6.98160937 6.57583333,6.7673125 6.74208333,6.57657812 C6.956875,6.36715625 7.18666667,6.27189062 7.43125,6.29078125 C7.67520833,6.31028125 7.89520833,6.4049375 8.09083333,6.57657812 L9.99666667,8.43496875 L11.9464583,6.56215625 C12.1322917,6.38117187 12.3497917,6.29321875 12.5991667,6.2976875 C12.8483333,6.3025625 13.0704167,6.39559375 13.26625,6.576375 C13.4420833,6.74801562 13.53,6.96251562 13.53,7.21967187 C13.53,7.47703125 13.4420833,7.69620312 13.26625,7.87698437 L11.36,9.75 L13.26625,11.6226094 C13.4420833,11.79425 13.5347917,12.0109844 13.5445833,12.2730156 C13.554375,12.53525 13.4614583,12.761125 13.26625,12.9518594 L13.26625,12.9518594 Z" id="Shape" fill="#000000"></path>
                    </g>
                    <rect id="Rectangle-660" x="0" y="0.00011144135" width="39" height="38.025"></rect>
                </g>
            </g>
        </g>
    </g>
</svg>