<?xml version="1.0" encoding="UTF-8" standalone="no"?>
<svg width="35px" height="35px" viewBox="0 0 35 35" version="1.1" xmlns="http://www.w3.org/2000/svg" xmlns:xlink="http://www.w3.org/1999/xlink" xmlns:sketch="http://www.bohemiancoding.com/sketch/ns">
    <!-- Generator: Sketch 3.2.2 (9983) - http://www.bohemiancoding.com/sketch -->
    <title>node_function_random</title>
    <desc>Created with Sketch.</desc>
    <defs></defs>
    <g id="Workplaces" stroke="none" stroke-width="1" fill="none" fill-rule="evenodd" sketch:type="MSPage">
        <g id="node_function_random" sketch:type="MSLayerGroup">
            <g id="function_bg" fill="#61B3FF" sketch:type="MSShapeGroup">
                <path d="M17.5,35 C27.1649831,35 35,27.1649831 35,17.5 C35,7.83501688 27.1649831,0 17.5,0 C7.83501688,0 0,7.83501688 0,17.5 C0,27.1649831 7.83501688,35 17.5,35 Z" id="Oval-35"></path>
            </g>
            <g id="Path-184-+-Path-184-+-Path-184" transform="translate(8.000000, 8.000000)" fill="#000000" sketch:type="MSShapeGroup">
                <path d="M7.99958283,10.0528543 C7.99958283,10.0528543 7.99798563,18.7051091 7.99958283,19.3231523 C8.00118003,19.9411955 7.94767387,20.1347744 7.5472333,19.908831 C7.14679274,19.6828875 0.873908354,16.1809467 0.503472307,15.9671704 C0.133036261,15.753394 0.00902517894,15.3640462 0.0292183358,14.9136193 C0.0494114926,14.4631925 0.00126735597,7.01630587 1.24140205e-05,6.50358338 C-0.00124252793,5.99086089 0.0921936046,5.90569104 0.488070747,6.08698115 C0.88394789,6.26827125 7.18866216,9.07254938 7.60849729,9.26588494 C8.02833241,9.4592205 7.99958283,10.0528543 7.99958283,10.0528543 Z M4.91222292,12.3564077 C5.23098477,13.7089975 4.60407654,14.0314291 4.26806068,13.9976672 C3.93204481,13.9639053 2.86938975,13.3280533 3.01331943,11.8498914 C3.1572491,10.3717296 4.59346107,11.0038178 4.91222292,12.3564077 Z M2.91222292,14.3564077 C3.23098477,15.7089975 2.60407654,16.0314291 2.26806068,15.9976672 C1.93204481,15.9639053 0.869389751,15.3280533 1.01331943,13.8498914 C1.1572491,12.3717296 2.59346107,13.0038178 2.91222292,14.3564077 Z M6.91222292,10.3564077 C7.23098477,11.7089975 6.60407654,12.0314291 6.26806068,11.9976672 C5.93204481,11.9639053 4.86938975,11.3280533 5.01331943,9.84989144 C5.1572491,8.37172956 6.59346107,9.00381782 6.91222292,10.3564077 Z" id="Path-184"></path>
                <path d="M10.0004172,10.0528543 C10.0004172,10.0528543 10.0020144,18.7051091 10.0004172,19.3231523 C9.99881997,19.9411955 10.0523261,20.1347744 10.4527667,19.908831 C10.8532073,19.6828875 17.1260916,16.1809467 17.4965277,15.9671704 C17.8669637,15.753394 17.9909748,15.3640462 17.9707817,14.9136193 C17.9505885,14.4631925 17.9987326,7.01630587 17.9999876,6.50358338 C18.0012425,5.99086089 17.9078064,5.90569104 17.5119293,6.08698115 C17.1160521,6.26827125 10.8113378,9.07254938 10.3915027,9.26588494 C9.97166759,9.4592205 10.0004172,10.0528543 10.0004172,10.0528543 Z M15.0877771,13.3564077 C14.7690152,14.7089975 15.3959235,15.0314291 15.7319393,14.9976672 C16.0679552,14.9639053 17.1306102,14.3280533 16.9866806,12.8498914 C16.8427509,11.3717296 15.4065389,12.0038178 15.0877771,13.3564077 Z M12.0877771,11.3564077 C11.7690152,12.7089975 12.3959235,13.0314291 12.7319393,12.9976672 C13.0679552,12.9639053 14.1306102,12.3280533 13.9866806,10.8498914 C13.8427509,9.37172956 12.4065389,10.0038178 12.0877771,11.3564077 Z" id="Path-184"></path>
                <path d="M9.69090373,7.19622082 C9.69090373,7.19622082 15.8119296,4.64682237 16.2887996,4.40645286 C16.7656697,4.16608336 16.7442669,3.57915372 16.1962738,3.35878757 C15.6482807,3.13842142 10.1164009,0.744804633 9.69840069,0.620340153 C9.28040051,0.495875673 8.92090413,0.345808547 8.0819981,0.707268302 C7.68147635,0.87984126 1.72577877,3.20888005 1.37285097,3.55997013 C1.01992316,3.9110602 1.15188563,4.22855875 1.56621034,4.3939545 C1.98053505,4.55935025 8.21346963,7.087721 8.65360611,7.26238894 C9.09374258,7.43705688 9.69090373,7.19622082 9.69090373,7.19622082 Z M9.40428566,3.89576568 C10.825489,3.52780131 10.7321528,2.69162497 10.4949948,2.35148372 C10.2578368,2.01134248 9.02855753,1.21234386 7.77805777,2.13866693 C6.52755802,3.06499001 7.98308229,4.26373006 9.40428566,3.89576568 Z" id="Path-184"></path>
            </g>
        </g>
    </g>
</svg>