<?xml version="1.0" encoding="UTF-8" standalone="no"?>
<svg width="35px" height="35px" viewBox="0 0 35 35" version="1.1" xmlns="http://www.w3.org/2000/svg" xmlns:xlink="http://www.w3.org/1999/xlink" xmlns:sketch="http://www.bohemiancoding.com/sketch/ns">
    <!-- Generator: Sketch 3.2.2 (9983) - http://www.bohemiancoding.com/sketch -->
    <title>node_override</title>
    <desc>Created with Sketch.</desc>
    <defs></defs>
    <g id="Workplaces" stroke="none" stroke-width="1" fill="none" fill-rule="evenodd" sketch:type="MSPage">
        <g id="node_override" sketch:type="MSLayerGroup">
            <path d="M17.5,35 C27.1649831,35 35,27.1649831 35,17.5 C35,7.83501688 27.1649831,0 17.5,0 C7.83501688,0 0,7.83501688 0,17.5 C0,27.1649831 7.83501688,35 17.5,35 Z" id="Oval-35" fill="#34CB20" sketch:type="MSShapeGroup"></path>
            <path d="M17.4539969,11.5466437 C21.4497628,11.5466437 24.1136068,9.77074773 28.9973208,11.5466437 C33.8810348,13.3225397 34.7689828,21.3140717 28.9973208,23.0899677 C23.2256588,24.8658637 18.3419449,19.0942017 17.4539969,19.0942017 C16.5660489,19.0942017 11.6823349,25.7538117 5.46669889,22.6459937 C-0.748937092,19.5381757 2.3588809,11.9906177 7.24259488,11.1026697 C12.1263089,10.2147217 13.4582309,11.5466437 17.4539969,11.5466437 Z M24.5575808,15.5424097 C21.8937368,15.5424097 20.5618148,17.3183057 20.5618148,17.3183057 C20.5618148,17.3183057 21.4497628,18.6502277 24.1136068,18.6502277 C26.7774508,18.6502277 28.1093728,16.8743317 28.1093728,16.8743317 C28.1093728,16.8743317 27.2214248,15.5424097 24.5575808,15.5424097 Z M10.7943869,15.5424097 C13.4582309,15.5424097 14.7901529,17.3183057 14.7901529,17.3183057 C14.7901529,17.3183057 13.9022049,18.6502277 11.2383609,18.6502277 C8.57451688,18.6502277 7.24259488,16.8743317 7.24259488,16.8743317 C7.24259488,16.8743317 8.13054288,15.5424097 10.7943869,15.5424097 Z" id="Path-42" fill="#000000" sketch:type="MSShapeGroup"></path>
        </g>
    </g>
</svg>