<?xml version="1.0" encoding="UTF-8" standalone="no"?>
<svg width="28px" height="28px" viewBox="0 0 28 28" version="1.1" xmlns="http://www.w3.org/2000/svg" xmlns:xlink="http://www.w3.org/1999/xlink" xmlns:sketch="http://www.bohemiancoding.com/sketch/ns">
    <!-- Generator: Sketch 3.2.2 (9983) - http://www.bohemiancoding.com/sketch -->
    <title>device_analog_input</title>
    <desc>Created with Sketch.</desc>
    <defs></defs>
    <g id="Workplaces" stroke="none" stroke-width="1" fill="none" fill-rule="evenodd" sketch:type="MSPage">
        <g id="device_analog_input" sketch:type="MSLayerGroup">
            <g id="Oval-26" fill="#B1B1B1" sketch:type="MSShapeGroup">
                <path d="M14,28 C21.7319865,28 28,21.7319865 28,14 C28,6.2680135 21.7319865,0 14,0 C6.2680135,0 0,6.2680135 0,14 C0,21.7319865 6.2680135,28 14,28 Z"></path>
            </g>
            <g id="Group" transform="translate(3.000000, 7.000000)" sketch:type="MSShapeGroup">
                <circle id="Oval-48" stroke="#000000" stroke-width="2" cx="12.5" cy="7.5" r="6.5"></circle>
                <path d="M11,8.38743269 C8.38036681,8.35854973 8.74244362,6.57316432 7.96442733,6.56747144 C7.3801957,6.56319652 6.13432192,9.02321614 3.82242244,8.99983437 C1.51052295,8.9764526 0.699899819,5.98533442 -1.13686838e-13,6.00005415" id="Path-70" stroke="#B1B1B1" stroke-width="2"></path>
                <path d="M11,6.0301557 C10.1528918,6.11733881 9.75354991,4.37018475 7.92108209,4.35652726 C5.42947761,4.33795719 5.05149254,6.96437545 3.91184701,6.99968269 C2.77220149,7.03498993 1.65201446,4.11228171 0,4" id="Path-70" stroke="#B1B1B1" stroke-width="2"></path>
                <path d="M11,6.81250614 C8.76259932,6.82807578 9.15037827,4.99585506 7.48367502,5.00000705 C5.81697178,5.00415903 4.99107068,7.96310463 3.59053694,7.99931135 C2.1900032,8.03551807 1.42686939,6.63475279 1,5.98433303" id="Path-70" stroke="#000000" stroke-width="2"></path>
                <polygon id="Triangle-3" fill="#000000" transform="translate(13.143590, 7.250000) rotate(-270.000000) translate(-13.143590, -7.250000) " points="13.3935897 5.10641026 16.8935897 9.10641026 9.89358974 9.10641026 "></polygon>
            </g>
        </g>
    </g>
</svg>