<?xml version="1.0" encoding="UTF-8" standalone="no"?>
<svg width="28px" height="28px" viewBox="0 0 28 28" version="1.1" xmlns="http://www.w3.org/2000/svg" xmlns:xlink="http://www.w3.org/1999/xlink" xmlns:sketch="http://www.bohemiancoding.com/sketch/ns">
    <!-- Generator: Sketch 3.2.2 (9983) - http://www.bohemiancoding.com/sketch -->
    <title>device_output_servo</title>
    <desc>Created with Sketch.</desc>
    <defs></defs>
    <g id="Workplaces" stroke="none" stroke-width="1" fill="none" fill-rule="evenodd" sketch:type="MSPage">
        <g id="device_output_servo" sketch:type="MSLayerGroup">
            <g id="device_servo" sketch:type="MSShapeGroup">
                <g>
                    <g>
                        <g id="Oval-26" fill="#B1B1B1">
                            <path d="M14,28 C21.7319865,28 28,21.7319865 28,14 C28,6.2680135 21.7319865,0 14,0 C6.2680135,0 0,6.2680135 0,14 C0,21.7319865 6.2680135,28 14,28 Z"></path>
                        </g>
                        <g id="Oval-60-+-Group" transform="translate(3.000000, 3.000000)">
                            <circle id="Oval-60" fill="#3A3A3A" cx="11" cy="11" r="10"></circle>
                            <g id="Group" transform="translate(2.000000, 2.000000)" fill="#FFFFFF">
                                <g id="Rectangle-93-+-Rectangle-93" transform="translate(0.000000, 8.000000)">
                                    <rect id="Rectangle-93" x="0" y="0" width="5" height="2" rx="8"></rect>
                                    <rect id="Rectangle-93" x="12" y="0" width="5" height="2" rx="8"></rect>
                                </g>
                                <g id="Rectangle-93-+-Rectangle-93" transform="translate(9.000000, 9.500000) rotate(-270.000000) translate(-9.000000, -9.500000) translate(0.500000, 8.500000)">
                                    <rect id="Rectangle-93" x="0" y="0" width="5" height="2" rx="8"></rect>
                                    <rect id="Rectangle-93" x="12" y="0" width="5" height="2" rx="8"></rect>
                                </g>
                                <g id="Rectangle-93-+-Rectangle-93" transform="translate(8.717514, 8.717514) rotate(-315.000000) translate(-8.717514, -8.717514) translate(0.217514, 7.717514)">
                                    <rect id="Rectangle-93" x="0" y="0" width="5" height="2" rx="8"></rect>
                                    <rect id="Rectangle-93" x="11.3137085" y="5.03486142e-14" width="5" height="2" rx="8"></rect>
                                </g>
                                <g id="Rectangle-93-+-Rectangle-93" transform="translate(8.717514, 8.717514) rotate(-225.000000) translate(-8.717514, -8.717514) translate(0.217514, 7.717514)">
                                    <rect id="Rectangle-93" x="0.343145751" y="0.343145751" width="5" height="2" rx="8"></rect>
                                    <rect id="Rectangle-93" x="11.6568542" y="0.343145751" width="5" height="2" rx="8"></rect>
                                </g>
                                <circle id="Oval-61" cx="9" cy="9" r="1"></circle>
                            </g>
                        </g>
                    </g>
                </g>
            </g>
        </g>
    </g>
</svg>