<?xml version="1.0" encoding="UTF-8" standalone="no"?>
<svg width="28px" height="28px" viewBox="0 0 28 28" version="1.1" xmlns="http://www.w3.org/2000/svg" xmlns:xlink="http://www.w3.org/1999/xlink" xmlns:sketch="http://www.bohemiancoding.com/sketch/ns">
    <!-- Generator: Sketch 3.2.2 (9983) - http://www.bohemiancoding.com/sketch -->
    <title>device_analog_output</title>
    <desc>Created with Sketch.</desc>
    <defs></defs>
    <g id="Workplaces" stroke="none" stroke-width="1" fill="none" fill-rule="evenodd" sketch:type="MSPage">
        <g id="device_analog_output" sketch:type="MSLayerGroup">
            <g id="Oval-26" fill="#B1B1B1" sketch:type="MSShapeGroup">
                <path d="M14,28 C21.7319865,28 28,21.7319865 28,14 C28,6.2680135 21.7319865,0 14,0 C6.2680135,0 0,6.2680135 0,14 C0,21.7319865 6.2680135,28 14,28 Z"></path>
            </g>
            <g id="Group" transform="translate(7.000000, 7.000000)" sketch:type="MSShapeGroup">
                <path d="M6.5,14 C10.0898509,14 13,11.0898509 13,7.5 C13,3.91014913 10.0898509,1 6.5,1 C2.91014913,1 0,3.91014913 0,7.5 C0,11.0898509 2.91014913,14 6.5,14 Z" id="Oval-48" stroke="#000000" stroke-width="2"></path>
                <path d="M15,9.35636753 C13.8095184,9.34764738 13.3759056,7.62209709 11.647469,7.64952318 C10.2329913,7.67196751 9.20762676,10.0036601 7.7933712,9.99999569 C6.37911565,9.99633122 4.69438544,6.98303863 4,7.00007194" id="Path-70" stroke="#B1B1B1" stroke-width="2"></path>
                <path d="M15,6.0301557 C14.1528918,6.11733881 13.7175763,4.12018942 11.8851085,4.10653193 C9.39350399,4.08796186 9.05149254,6.96437545 7.91184701,6.99968269 C6.77220149,7.03498993 5.65201446,4.11228171 4,4" id="Path-70" stroke="#B1B1B1" stroke-width="2"></path>
                <path d="M15,6.81250614 C12.7625993,6.82807578 13.1503783,4.99585506 11.483675,5.00000705 C9.81697178,5.00415903 8.99107068,7.96310463 7.59053694,7.99931135 C6.1900032,8.03551807 5.42686939,6.63475279 5,5.98433303" id="Path-70" stroke="#000000" stroke-width="2"></path>
                <polygon id="Triangle-3" fill="#000000" transform="translate(17.143590, 7.250000) rotate(-270.000000) translate(-17.143590, -7.250000) " points="17.3935897 5.10641026 20.8935897 9.10641026 13.8935897 9.10641026 "></polygon>
            </g>
        </g>
    </g>
</svg>