<?xml version="1.0" encoding="UTF-8" standalone="no"?>
<svg width="28px" height="28px" viewBox="0 0 28 28" version="1.1" xmlns="http://www.w3.org/2000/svg" xmlns:xlink="http://www.w3.org/1999/xlink" xmlns:sketch="http://www.bohemiancoding.com/sketch/ns">
    <!-- Generator: Sketch 3.2.2 (9983) - http://www.bohemiancoding.com/sketch -->
    <title>device_led_blue</title>
    <desc>Created with Sketch.</desc>
    <defs></defs>
    <g id="Workplaces" stroke="none" stroke-width="1" fill="none" fill-rule="evenodd" sketch:type="MSPage">
        <g id="device_led_blue" sketch:type="MSLayerGroup">
            <g id="red-led" sketch:type="MSShapeGroup">
                <g id="Oval-26" fill="#B1B1B1">
                    <path d="M14,28 C21.7319865,28 28,21.7319865 28,14 C28,6.2680135 21.7319865,0 14,0 C6.2680135,0 0,6.2680135 0,14 C0,21.7319865 6.2680135,28 14,28 Z"></path>
                </g>
                <g id="Rectangle-96-+-Rectangle-96" transform="translate(9.000000, 16.000000)" fill="#000000">
                    <path d="M3,1 L3,6 L1,6 L1,1 L3,1 L3,1 Z" id="Rectangle-96"></path>
                    <path d="M8,1 L8,6 L6,6 L6,1 L8,1 L8,1 Z" id="Rectangle-96"></path>
                </g>
                <rect id="Rectangle-96" fill="#000000" transform="translate(13.500000, 15.000000) rotate(-270.000000) translate(-13.500000, -15.000000) " x="12.5" y="8.5" width="2" height="13"></rect>
                <path d="M19,10.2028282 C19,7.32938551 16.7614237,5 14,5 C11.2385763,5 9,7.32938551 9,10.2028282 L9,14.9817046 L18.9751626,15 C18.9751626,15 19,11.6553508 19,10.2028282 Z" id="Oval-31" stroke="#000000" stroke-width="2" fill="#00E8FF"></path>
            </g>
        </g>
    </g>
</svg>