<?xml version="1.0" encoding="UTF-8" standalone="no"?>
<svg width="28px" height="28px" viewBox="0 0 28 28" version="1.1" xmlns="http://www.w3.org/2000/svg" xmlns:xlink="http://www.w3.org/1999/xlink" xmlns:sketch="http://www.bohemiancoding.com/sketch/ns">
    <!-- Generator: Sketch 3.2.2 (9983) - http://www.bohemiancoding.com/sketch -->
    <title>device_input_sonar_sensor</title>
    <desc>Created with Sketch.</desc>
    <defs></defs>
    <g id="Workplaces" stroke="none" stroke-width="1" fill="none" fill-rule="evenodd" sketch:type="MSPage">
        <g id="device_input_sonar_sensor" sketch:type="MSLayerGroup">
            <g id="Oval-26" fill="#B1B1B1" sketch:type="MSShapeGroup">
                <path d="M14,28 C21.7319865,28 28,21.7319865 28,14 C28,6.2680135 21.7319865,0 14,0 C6.2680135,0 0,6.2680135 0,14 C0,21.7319865 6.2680135,28 14,28 Z"></path>
            </g>
            <g id="Rectangle-109-+-Rectangle-109-+-Rectangle-109-+-Rectangle-109-+-Path-87-+-Path-87-+-Path-87" transform="translate(6.000000, 5.000000)" sketch:type="MSShapeGroup">
                <g id="Rectangle-109-+-Rectangle-109-+-Rectangle-109-+-Rectangle-109" transform="translate(0.000000, 10.000000)" fill="#000000">
                    <rect id="Rectangle-109" x="2" y="4" width="12" height="2"></rect>
                    <g id="Rectangle-109-+-Rectangle-109-+-Rectangle-109">
                        <rect id="Rectangle-109" x="0" y="5" width="15" height="1"></rect>
                        <rect id="Rectangle-109" x="2" y="0" width="5" height="4"></rect>
                        <rect id="Rectangle-109" x="9" y="0" width="5" height="4"></rect>
                    </g>
                </g>
                <g id="Path-87-+-Path-87-+-Path-87" transform="translate(2.000000, 0.000000)" stroke="#FFFFFF">
                    <path d="M4,6.88130258 C4.91020345,5.83432423 6.91924031,5.71533081 8,6.94120927" id="Path-87"></path>
                    <path d="M2,4.88508672 C3.57038676,2.33051058 8.26398922,2.37569783 10,5" id="Path-87"></path>
                    <path d="M0,4 C2.04495089,-0.171186462 9.96889091,0.184579708 12,3.96980234" id="Path-87"></path>
                </g>
            </g>
        </g>
    </g>
</svg>