<?xml version="1.0" encoding="UTF-8" standalone="no"?>
<svg width="28px" height="28px" viewBox="0 0 28 28" version="1.1" xmlns="http://www.w3.org/2000/svg" xmlns:xlink="http://www.w3.org/1999/xlink" xmlns:sketch="http://www.bohemiancoding.com/sketch/ns">
    <!-- Generator: Sketch 3.2.2 (9983) - http://www.bohemiancoding.com/sketch -->
    <title>device_knob</title>
    <desc>Created with Sketch.</desc>
    <defs></defs>
    <g id="Workplaces" stroke="none" stroke-width="1" fill="none" fill-rule="evenodd" sketch:type="MSPage">
        <g id="device_knob" sketch:type="MSLayerGroup">
            <g id="Oval-26-+-Untitled-1-[Converted]" sketch:type="MSShapeGroup">
                <g id="Oval-26" fill="#B1B1B1">
                    <path d="M14,28 C21.7319865,28 28,21.7319865 28,14 C28,6.2680135 21.7319865,0 14,0 C6.2680135,0 0,6.2680135 0,14 C0,21.7319865 6.2680135,28 14,28 Z"></path>
                </g>
                <g id="Untitled-1-[Converted]" transform="translate(4.000000, 3.000000)">
                    <path d="M20,11 C20,16.5226667 15.5226667,21 10,21 C4.47733333,21 -1.59872116e-14,16.5226667 -1.59872116e-14,11 C-1.59872116e-14,5.47733333 4.47733333,1 10,1 C15.5226667,1 20,5.47733333 20,11 Z" id="Shape" fill="#000000"></path>
                    <path d="M14,5 C14.5523333,5 15,5.44766667 15,6 C15,6.55233333 14.5523333,7 14,7 C13.4476667,7 13,6.55233333 13,6 C13,5.44766667 13.4476667,5 14,5 L14,5 Z" id="Shape" fill="#FFFFFF"></path>
                    <path d="M4,9 C4.55233333,9 5,9.44766667 5,10 C5,10.5523333 4.55233333,11 4,11 C3.44766667,11 3,10.5523333 3,10 C3,9.44766667 3.44766667,9 4,9 L4,9 Z" id="Shape" fill="#FFFFFF"></path>
                    <path d="M15,9 C15.5523333,9 16,9.44766667 16,10 C16,10.5523333 15.5523333,11 15,11 C14.4476667,11 14,10.5523333 14,10 C14,9.44766667 14.4476667,9 15,9 L15,9 Z" id="Shape" fill="#FFFFFF"></path>
                    <path d="M6,5 C6.55233333,5 7,5.44766667 7,6 C7,6.55233333 6.55233333,7 6,7 C5.44766667,7 5,6.55233333 5,6 C5,5.44766667 5.44766667,5 6,5 L6,5 Z" id="Shape" fill="#FFFFFF"></path>
                    <path d="M10.5,3 C11.328375,3 12,3.671625 12,4.5 C12,5.328375 11.328375,6 10.5,6 C9.671625,6 9,5.328375 9,4.5 C9,3.671625 9.671625,3 10.5,3 L10.5,3 Z" id="Shape" fill="#FFFFFF"></path>
                    <path d="M12,8 C12,8 11.4409765,12.271705 10.8352814,13.1337069 C10.2295862,13.9954024 8.95008968,14.2586301 7.97758938,13.7214494 C7.00543478,13.1848816 6.70811866,12.0504589 7.31415955,11.1887635 C7.92020045,10.327068 12,8 12,8 L12,8 Z" id="Shape" fill="#FFFFFF"></path>
                </g>
            </g>
        </g>
    </g>
</svg>