<?xml version="1.0" encoding="UTF-8" standalone="no"?>
<svg width="50px" height="50px" viewBox="0 0 50 50" version="1.1" xmlns="http://www.w3.org/2000/svg" xmlns:xlink="http://www.w3.org/1999/xlink" xmlns:sketch="http://www.bohemiancoding.com/sketch/ns">
    <!-- Generator: Sketch 3.2.2 (9983) - http://www.bohemiancoding.com/sketch -->
    <title>copy</title>
    <desc>Created with Sketch.</desc>
    <defs></defs>
    <g id="Workplaces" stroke="none" stroke-width="1" fill="none" fill-rule="evenodd" sketch:type="MSPage">
        <g id="copy" sketch:type="MSLayerGroup" transform="translate(-7.000000, -8.000000)">
            <g id="Group" transform="translate(6.937680, 8.694273)" sketch:type="MSShapeGroup">
                <path d="M35.2392461,31.5624557 C35.2392461,33.570268 33.611583,35.1979311 31.6035189,35.1979311 L6.38343216,35.1979311 C4.37561992,35.1979311 2.74770491,33.570268 2.74770491,31.5624557 L2.74770491,6.34211708 C2.74770491,4.33430484 4.37561992,2.70664174 6.38343216,2.70664174 L31.6035189,2.70664174 C33.611583,2.70664174 35.2392461,4.33430484 35.2392461,6.34211708 L35.2392461,31.5624557" id="Fill-1" fill="#FFFFFF"></path>
                <path d="M31.6035189,37.7171434 L6.38343216,37.7171434 C2.98954929,37.7171434 0.228744481,34.9560867 0.228744481,31.5624557 L0.228744481,6.34211708 C0.228744481,2.94848613 2.98954929,0.187429399 6.38343216,0.187429399 L31.6035189,0.187429399 C34.9974018,0.187429399 37.7584585,2.94848613 37.7584585,6.34211708 L37.7584585,31.5624557 C37.7584585,34.9560867 34.9974018,37.7171434 31.6035189,37.7171434 L31.6035189,37.7171434 Z M6.38343216,5.22585409 C5.76773667,5.22585409 5.26691725,5.72642158 5.26691725,6.34211708 L5.26691725,31.5624557 C5.26691725,32.1778993 5.76773667,32.6787187 6.38343216,32.6787187 L31.6035189,32.6787187 C32.2192144,32.6787187 32.7200338,32.1778993 32.7200338,31.5624557 L32.7200338,6.34211708 C32.7200338,5.72642158 32.2192144,5.22585409 31.6035189,5.22585409 L6.38343216,5.22585409 L6.38343216,5.22585409 Z" id="Fill-2" fill="#000000"></path>
                <path d="M46.5903131,42.9135227 C46.5903131,44.9213349 44.96265,46.548998 42.9548378,46.548998 L17.7344992,46.548998 C15.7266869,46.548998 14.0990238,44.9213349 14.0990238,42.9135227 L14.0990238,17.6931841 C14.0990238,15.6853718 15.7266869,14.0577087 17.7344992,14.0577087 L42.9548378,14.0577087 C44.96265,14.0577087 46.5903131,15.6853718 46.5903131,17.6931841 L46.5903131,42.9135227" id="Fill-3" fill="#FFFFFF"></path>
                <path d="M42.9548378,49.0682104 L17.7344992,49.0682104 C14.3408682,49.0682104 11.5798115,46.3071537 11.5798115,42.9135227 L11.5798115,17.6931841 C11.5798115,14.2995531 14.3408682,11.5384964 17.7344992,11.5384964 L42.9548378,11.5384964 C46.3484687,11.5384964 49.1095255,14.2995531 49.1095255,17.6931841 L49.1095255,42.9135227 C49.1095255,46.3071537 46.3484687,49.0682104 42.9548378,49.0682104 L42.9548378,49.0682104 Z M17.7344992,16.5769211 C17.1190556,16.5769211 16.6182362,17.0777405 16.6182362,17.6931841 L16.6182362,42.9135227 C16.6182362,43.5292182 17.1190556,44.0297857 17.7344992,44.0297857 L42.9548378,44.0297857 C43.5702814,44.0297857 44.0711008,43.5292182 44.0711008,42.9135227 L44.0711008,17.6931841 C44.0711008,17.0777405 43.5702814,16.5769211 42.9548378,16.5769211 L17.7344992,16.5769211 L17.7344992,16.5769211 Z" id="Fill-4" fill="#000000"></path>
            </g>
            <rect id="Rectangle-290" sketch:type="MSShapeGroup" x="0" y="0.878296684" width="63" height="63"></rect>
        </g>
    </g>
</svg>