<?xml version="1.0" encoding="UTF-8" standalone="no"?>
<svg width="41px" height="41px" viewBox="0 0 41 41" version="1.1" xmlns="http://www.w3.org/2000/svg" xmlns:xlink="http://www.w3.org/1999/xlink" xmlns:sketch="http://www.bohemiancoding.com/sketch/ns">
    <!-- Generator: Sketch 3.2.2 (9983) - http://www.bohemiancoding.com/sketch -->
    <title>cut</title>
    <desc>Created with Sketch.</desc>
    <defs></defs>
    <g id="Workplaces" stroke="none" stroke-width="1" fill="none" fill-rule="evenodd" sketch:type="MSPage">
        <g id="cut" sketch:type="MSLayerGroup" transform="translate(-11.000000, -11.000000)">
            <g id="Fill-5-+-Fill-6-+-Fill-7" transform="translate(11.007829, 10.869368)" sketch:type="MSShapeGroup">
                <path d="M5.14298117,5.42544083 L35.6320091,5.42544083 L35.6320091,35.9147457 L5.14298117,35.9147457 L5.14298117,5.42544083 Z" id="Fill-5" fill="#FFFFFF"></path>
                <path d="M5.11999671,0.233444601 C2.30315391,0.233444601 0.0193844864,2.52275245 0.0193844864,5.33405682 L0.0193844864,10.434669 L5.11999671,10.434669 L5.11999671,5.33405682 L10.2206089,5.33405682 L10.2206089,0.233444601 L5.11999671,0.233444601 L5.11999671,0.233444601 Z M0.0193844864,35.9377301 C0.0193844864,38.7545729 2.30869233,41.0383424 5.11999671,41.0383424 L10.2206089,41.0383424 L10.2206089,35.9377301 L5.11999671,35.9377301 L5.11999671,30.8371179 L0.0193844864,30.8371179 L0.0193844864,35.9377301 L0.0193844864,35.9377301 Z M35.7233931,41.0383424 C38.5405128,41.0383424 40.8240053,38.7490345 40.8240053,35.9377301 L40.8240053,30.8371179 L35.7233931,30.8371179 L35.7233931,35.9377301 L30.6230578,35.9377301 L30.6230578,41.0383424 L35.7233931,41.0383424 L35.7233931,41.0383424 Z M15.3212211,35.9377301 L25.5221687,35.9377301 L25.5221687,41.0383424 L15.3212211,41.0383424 L15.3212211,35.9377301 Z M0.0193844864,15.5352813 L5.11999671,15.5352813 L5.11999671,25.7365057 L0.0193844864,25.7365057 L0.0193844864,15.5352813 Z" id="Fill-6" fill="#000000"></path>
                <path d="M40.8240053,5.33405682 C40.8240053,2.51721402 38.5346975,0.233444601 35.7233931,0.233444601 L30.6230578,0.233444601 L30.6230578,5.33405682 L35.7233931,5.33405682 L35.7233931,10.434669 L40.8240053,10.434669 L40.8240053,5.33405682 L40.8240053,5.33405682 Z M15.3212211,0.233444601 L25.5221687,0.233444601 L25.5221687,5.33405682 L15.3212211,5.33405682 L15.3212211,0.233444601 Z M35.7233931,15.5352813 L40.8240053,15.5352813 L40.8240053,25.7365057 L35.7233931,25.7365057 L35.7233931,15.5352813 Z" id="Fill-7" fill="#000000"></path>
            </g>
            <rect id="Rectangle-290" sketch:type="MSShapeGroup" x="0" y="0.878296684" width="63" height="63"></rect>
        </g>
    </g>
</svg>