<?xml version="1.0" encoding="UTF-8" standalone="no"?>
<svg width="31px" height="31px" viewBox="0 0 31 31" version="1.1" xmlns="http://www.w3.org/2000/svg" xmlns:xlink="http://www.w3.org/1999/xlink" xmlns:sketch="http://www.bohemiancoding.com/sketch/ns">
    <!-- Generator: Sketch 3.2.2 (9983) - http://www.bohemiancoding.com/sketch -->
    <title>delete</title>
    <desc>Created with Sketch.</desc>
    <defs></defs>
    <g id="Workplaces" stroke="none" stroke-width="1" fill="none" fill-rule="evenodd" sketch:type="MSPage">
        <g id="delete" sketch:type="MSLayerGroup" transform="translate(-16.000000, -18.000000)">
            <g id="Group" transform="translate(16.155955, 17.912549)" sketch:type="MSShapeGroup">
                <path d="M3.22346476,3.14689645 L27.5676272,27.4907551" id="Fill-12" fill="#FFFFFF"></path>
                <path d="M27.5676272,30.5294836 C26.7900943,30.5294836 26.0122576,30.2326295 25.4191571,29.639529 L1.07499466,5.29536655 C-0.111510186,4.10886171 -0.111510186,2.1849312 1.07499466,0.998426354 C2.2614995,-0.188382331 4.18543001,-0.188382331 5.3722387,0.998426354 L29.7160973,25.342285 C30.9026022,26.5287898 30.9026022,28.4530242 29.7160973,29.639529 C29.1229968,30.2326295 28.3451601,30.5294836 27.5676272,30.5294836" id="Fill-13" fill="#231F1F"></path>
                <path d="M3.22346476,27.4907551 L27.5676272,3.14689645" id="Fill-14" fill="#FFFFFF"></path>
                <path d="M3.22346476,30.5294836 C2.44593188,30.5294836 1.668399,30.2326295 1.07499466,29.639529 C-0.111510186,28.4530242 -0.111510186,26.5287898 1.07499466,25.342285 L25.4191571,0.998426354 C26.605662,-0.188382331 28.5295925,-0.188382331 29.7160973,0.998426354 C30.9026022,2.1849312 30.9026022,4.10886171 29.7160973,5.29536655 L5.3722387,29.639529 C4.77883436,30.2326295 4.00099763,30.5294836 3.22346476,30.5294836" id="Fill-15" fill="#231F1F"></path>
            </g>
            <rect id="Rectangle-290" sketch:type="MSShapeGroup" x="0" y="0.878296684" width="63" height="63"></rect>
        </g>
    </g>
</svg>