<?xml version="1.0" standalone="no"?><!-- Generator: Adobe Fireworks CS6, Export SVG Extension by Aaron Beall (http://fireworks.abeall.com) . Version: 0.6.1  --><!DOCTYPE svg PUBLIC "-//W3C//DTD SVG 1.1//EN" "http://www.w3.org/Graphics/SVG/1.1/DTD/svg11.dtd"><svg id="exports03_otherIcons.fw-open" viewBox="0 0 20 20" style="background-color:#ffffff00" version="1.1"	xmlns="http://www.w3.org/2000/svg" xmlns:xlink="http://www.w3.org/1999/xlink" xml:space="preserve"	x="0px" y="0px" width="20px" height="20px">	<g id="Layer%201">		<g>			<path d="M 16.4609 6.3674 L 15.3995 4.8615 L 14.9722 4.6357 L 10.8815 4.6582 L 7.481 2.1034 L 7.1749 2 L 2.592 2.0004 L 2.2755 2.1119 L 1.215 2.9505 L 1.0009 3.4037 L 1 16.4941 L 1.1554 16.8935 L 1.863 17.6464 C 1.9987 17.7907 2.1781 17.8643 2.3586 17.8852 C 2.2825 17.9625 2.2383 18 2.2383 18 L 14.6212 18 C 15.238 18 15.5884 17.8958 16.0363 16.8706 C 16.4843 15.8454 18.6533 10.5673 18.8667 10.0943 C 19.0802 9.6214 19.2731 8.212 17.4515 8.212 L 7.899 8.212 C 7.0782 8.212 6.4626 8.2221 6.13 8.965 C 5.7974 9.7078 3.811 15.4408 3.2997 16.4942 C 3.1721 16.757 3.0427 16.9816 2.9193 17.1718 L 2.0614 16.2607 L 2.0632 3.687 L 2.7672 3.1298 L 7.0057 3.1298 L 10.4076 5.6849 L 10.7164 5.7882 L 14.7114 5.7669 L 15.6118 7.045 C 16.0363 7.6473 16.8854 6.9697 16.4609 6.3674 Z" fill="#eeeeee"/>		</g>	</g></svg>