<?xml version="1.0" encoding="UTF-8" standalone="no"?>
<svg width="51px" height="51px" viewBox="0 0 51 51" version="1.1" xmlns="http://www.w3.org/2000/svg" xmlns:xlink="http://www.w3.org/1999/xlink" xmlns:sketch="http://www.bohemiancoding.com/sketch/ns">
    <!-- Generator: Sketch 3.2.2 (9983) - http://www.bohemiancoding.com/sketch -->
    <title>paste</title>
    <desc>Created with Sketch.</desc>
    <defs></defs>
    <g id="Workplaces" stroke="none" stroke-width="1" fill="none" fill-rule="evenodd" sketch:type="MSPage">
        <g id="paste" sketch:type="MSLayerGroup" transform="translate(-6.000000, -8.000000)">
            <g id="Group" transform="translate(6.285758, 8.298334)" sketch:type="MSShapeGroup">
                <path d="M4.76485171,4.84881385 L32.9484862,4.84881385 L32.9484862,33.0327044 L4.76485171,33.0327044 L4.76485171,4.84881385 Z" id="Fill-16" fill="#FFFFFF"></path>
                <path d="M4.74360519,0.0494045546 C2.1394988,0.0494045546 0.0286700006,2.16560897 0.0286700006,4.76433974 L0.0286700006,9.47927493 L4.74360519,9.47927493 L4.74360519,4.76433974 L9.45854038,4.76433974 L9.45854038,0.0494045546 L4.74360519,0.0494045546 L4.74360519,0.0494045546 Z M0.0286700006,33.0539509 C0.0286700006,35.6578013 2.14487442,37.7688861 4.74360519,37.7688861 L9.45854038,37.7688861 L9.45854038,33.0539509 L4.74360519,33.0539509 L4.74360519,28.3390157 L0.0286700006,28.3390157 L0.0286700006,33.0539509 L0.0286700006,33.0539509 Z M33.0329603,37.7688861 C35.6370667,37.7688861 37.7481515,35.6526816 37.7481515,33.0539509 L37.7481515,28.3390157 L33.0329603,28.3390157 L33.0329603,33.0539509 L28.3182811,33.0539509 L28.3182811,37.7688861 L33.0329603,37.7688861 L33.0329603,37.7688861 Z M14.1734756,33.0539509 L23.6033459,33.0539509 L23.6033459,37.7688861 L14.1734756,37.7688861 L14.1734756,33.0539509 Z M0.0286700006,14.1942101 L4.74360519,14.1942101 L4.74360519,23.6240805 L0.0286700006,23.6240805 L0.0286700006,14.1942101 Z" id="Fill-17" fill="#000000"></path>
                <path d="M37.7481515,4.76433974 C37.7481515,2.16048933 35.6316911,0.0494045546 33.0329603,0.0494045546 L28.3182811,0.0494045546 L28.3182811,4.76433974 L33.0329603,4.76433974 L33.0329603,9.47927493 L37.7481515,9.47927493 L37.7481515,4.76433974 L37.7481515,4.76433974 Z M14.1734756,0.0494045546 L23.6033459,0.0494045546 L23.6033459,4.76433974 L14.1734756,4.76433974 L14.1734756,0.0494045546 Z M33.0329603,14.1942101 L37.7478955,14.1942101 L37.7478955,23.6240805 L33.0329603,23.6240805 L33.0329603,14.1942101 Z" id="Fill-18" fill="#000000"></path>
                <path d="M47.6505649,43.4596252 C47.6505649,45.5000589 45.9966643,47.1539596 43.9562306,47.1539596 L18.3296017,47.1539596 C16.289424,47.1539596 14.6352674,45.5000589 14.6352674,43.4596252 L14.6352674,17.8329964 C14.6352674,15.7928186 16.289424,14.138662 18.3296017,14.138662 L43.9562306,14.138662 C45.9966643,14.138662 47.6505649,15.7928186 47.6505649,17.8329964 L47.6505649,43.4596252" id="Fill-19" fill="#FFFFFF"></path>
                <path d="M43.9562306,49.7137811 L18.3296017,49.7137811 C14.8810102,49.7137811 12.0754459,46.9082167 12.0754459,43.4596252 L12.0754459,17.8329964 C12.0754459,14.3844049 14.8810102,11.5788405 18.3296017,11.5788405 L43.9562306,11.5788405 C47.4048221,11.5788405 50.2101304,14.3844049 50.2101304,17.8329964 L50.2101304,43.4596252 C50.2101304,46.9082167 47.4048221,49.7137811 43.9562306,49.7137811 L43.9562306,49.7137811 Z M18.3296017,16.6984835 C17.7039814,16.6984835 17.1950888,17.207376 17.1950888,17.8329964 L17.1950888,43.4596252 C17.1950888,44.0852456 17.7039814,44.5941381 18.3296017,44.5941381 L43.9562306,44.5941381 C44.581595,44.5941381 45.0904875,44.0852456 45.0904875,43.4596252 L45.0904875,17.8329964 C45.0904875,17.207376 44.581595,16.6984835 43.9562306,16.6984835 L18.3296017,16.6984835 L18.3296017,16.6984835 Z" id="Fill-20" fill="#000000"></path>
            </g>
            <rect id="Rectangle-290" sketch:type="MSShapeGroup" x="0" y="0.878296684" width="63" height="63"></rect>
        </g>
    </g>
</svg>