<?xml version="1.0" encoding="UTF-8" standalone="no"?>
<svg width="49px" height="29px" viewBox="0 0 49 29" version="1.1" xmlns="http://www.w3.org/2000/svg" xmlns:xlink="http://www.w3.org/1999/xlink" xmlns:sketch="http://www.bohemiancoding.com/sketch/ns">
    <!-- Generator: Sketch 3.2.2 (9983) - http://www.bohemiancoding.com/sketch -->
    <title>redo</title>
    <desc>Created with Sketch.</desc>
    <defs></defs>
    <g id="Workplaces" stroke="none" stroke-width="1" fill="none" fill-rule="evenodd" sketch:type="MSPage">
        <g id="redo" sketch:type="MSLayerGroup" transform="translate(-7.000000, -19.000000)">
            <g id="Fill-10-+-Fill-11" transform="translate(7.496445, 18.975997)" fill="#000000" sketch:type="MSShapeGroup">
                <path d="M43.5524757,20.5944426 L20.070922,20.5944426 C15.7037942,20.5944426 10.7055856,20.2511006 6.74560666,17.7055084 C2.4024824,14.9131961 0.20053603,10.0055325 0.20053603,3.11803142 C0.20053603,1.43990946 1.56083876,0.0796067269 3.23896072,0.0796067269 C4.91708268,0.0796067269 6.27738541,1.43990946 6.27738541,3.11803142 C6.27738541,9.44798158 8.42008251,11.5575598 10.031663,12.5936627 C12.6842077,14.2988266 16.790031,14.5175932 20.070922,14.5175932 L43.5524757,14.5175932 C45.2305976,14.5175932 46.5909004,15.8778959 46.5909004,17.5560179 C46.5909004,19.2341398 45.2305976,20.5944426 43.5524757,20.5944426" id="Fill-10"></path>
                <path d="M35.8740727,28.2725418 C35.0965398,28.2725418 34.3190069,27.9759915 33.7256026,27.3825872 C32.5390977,26.1957785 32.5390977,24.2721518 33.7259064,23.0853431 L39.2512817,17.5599678 L33.1331097,11.4648879 C31.9441742,10.2805099 31.940528,8.35688327 33.124906,7.16794769 C34.3092839,5.97931595 36.2332144,5.97566984 37.4218462,7.16004779 L47.8536697,17.5520679 L38.0225427,27.3825872 C37.4294422,27.9756877 36.6516055,28.2725418 35.8740727,28.2725418" id="Fill-11"></path>
            </g>
            <rect id="Rectangle-290" sketch:type="MSShapeGroup" x="0" y="0.878296684" width="63" height="63"></rect>
        </g>
    </g>
</svg>