<?xml version="1.0" standalone="no"?><!-- Generator: Adobe Fireworks CS6, Export SVG Extension by Aaron Beall (http://fireworks.abeall.com) . Version: 0.6.1  --><!DOCTYPE svg PUBLIC "-//W3C//DTD SVG 1.1//EN" "http://www.w3.org/Graphics/SVG/1.1/DTD/svg11.dtd"><svg id="exports03_otherIcons.fw-save" viewBox="0 0 20 20" style="background-color:#ffffff00" version="1.1"	xmlns="http://www.w3.org/2000/svg" xmlns:xlink="http://www.w3.org/1999/xlink" xml:space="preserve"	x="0px" y="0px" width="20px" height="20px">	<g id="Layer%2012">		<path d="M 7.3333 14.9655 L 7.3333 18 L 10.1404 18 L 10.1404 14.9655 L 7.3333 14.9655 ZM 4.5263 4.1814 C 4.5263 3.8232 4.6973 3.6552 5.0618 3.6552 L 14.9382 3.6552 C 15.3027 3.6552 15.4737 3.8232 15.4737 4.1814 L 15.4737 7.8186 C 15.4737 8.1768 15.3027 8.3448 14.9382 8.3448 L 5.0618 8.3448 C 4.6973 8.3448 4.5263 8.1768 4.5263 7.8186 L 4.5263 4.1814 ZM 2 3.2289 L 2 16.7711 C 2 17.7324 2.2723 18 3.2504 18 L 5.6528 18 C 5.6528 13.0345 5.6491 13.0345 5.6491 13.0345 C 5.6491 12.5245 6.2105 12.4828 6.2105 12.4828 L 14.0702 12.4828 C 14.559 12.4828 14.6316 13.0345 14.6316 13.0345 L 14.6316 18 L 16.7496 18 C 17.7277 18 18 17.7324 18 16.7711 L 18 3.2289 C 18 2.2676 17.7277 2 16.7496 2 L 3.2504 2 C 2.2723 2 2 2.2676 2 3.2289 Z" fill="#eeeeee"/>	</g></svg>