<?xml version="1.0" encoding="UTF-8" standalone="no"?>
<svg width="24px" height="24px" viewBox="0 0 24 24" version="1.1" xmlns="http://www.w3.org/2000/svg" xmlns:xlink="http://www.w3.org/1999/xlink" xmlns:sketch="http://www.bohemiancoding.com/sketch/ns">
    <!-- Generator: Sketch 3.2.2 (9983) - http://www.bohemiancoding.com/sketch -->
    <title>toggle_help_view</title>
    <desc>Created with Sketch.</desc>
    <defs></defs>
    <g id="Workplaces" stroke="none" stroke-width="1" fill="none" fill-rule="evenodd" sketch:type="MSPage">
        <g id="toggle_help_view" sketch:type="MSLayerGroup">
            <g id="Rectangle-190" stroke="#E8E8E8" sketch:type="MSShapeGroup">
                <rect x="0" y="0" width="24" height="24"></rect>
            </g>
            <path d="M10.527832,16.0805664 L10.527832,15.4213867 C10.527832,14.4692335 10.6743149,13.6859568 10.9672852,13.0715332 C11.2602554,12.4571096 11.8054973,11.8081089 12.6030273,11.1245117 C13.7098037,10.1886346 14.407632,9.48470288 14.6965332,9.01269531 C14.9854344,8.54068774 15.1298828,7.97103198 15.1298828,7.30371094 C15.1298828,6.47362866 14.8633653,5.83276593 14.3303223,5.38110352 C13.7972792,4.9294411 13.0302784,4.70361328 12.0292969,4.70361328 C11.38639,4.70361328 10.7597687,4.77888922 10.1494141,4.92944336 C9.53905945,5.0799975 8.83919666,5.35465295 8.04980469,5.75341797 L7.32958984,4.10546875 C8.86768347,3.29980066 10.4749265,2.89697266 12.1513672,2.89697266 C13.7057369,2.89697266 14.9142209,3.27945581 15.7768555,4.04443359 C16.63949,4.80941138 17.0708008,5.88768835 17.0708008,7.27929688 C17.0708008,7.87337537 16.9914559,8.39623798 16.8327637,8.84790039 C16.6740715,9.29956281 16.4401057,9.72680463 16.1308594,10.1296387 C15.821613,10.5324727 15.154302,11.1814734 14.1289062,12.0766602 C13.306962,12.7765334 12.7637546,13.3583961 12.4992676,13.8222656 C12.2347806,14.2861351 12.1025391,14.9046185 12.1025391,15.6777344 L12.1025391,16.0805664 L10.527832,16.0805664 Z M9.9296875,19.7060547 C9.9296875,18.5992783 10.4179639,18.0458984 11.3945312,18.0458984 C11.8665388,18.0458984 12.2307116,18.1883124 12.4870605,18.4731445 C12.7434095,18.7579767 12.871582,19.1689426 12.871582,19.7060547 C12.871582,20.2268906 12.741375,20.6317531 12.480957,20.9206543 C12.2205391,21.2095555 11.8584008,21.3540039 11.3945312,21.3540039 C10.9713521,21.3540039 10.6214207,21.2258314 10.3447266,20.9694824 C10.0680325,20.7131335 9.9296875,20.2919951 9.9296875,19.7060547 L9.9296875,19.7060547 Z" id="?" fill="#000000" sketch:type="MSShapeGroup"></path>
        </g>
    </g>
</svg>