<?xml version="1.0" encoding="UTF-8" standalone="no"?>
<svg width="24px" height="24px" viewBox="0 0 24 24" version="1.1" xmlns="http://www.w3.org/2000/svg" xmlns:xlink="http://www.w3.org/1999/xlink" xmlns:sketch="http://www.bohemiancoding.com/sketch/ns">
    <!-- Generator: Sketch 3.2.2 (9983) - http://www.bohemiancoding.com/sketch -->
    <title>tree_share</title>
    <desc>Created with Sketch.</desc>
    <defs></defs>
    <g id="Workplaces" stroke="none" stroke-width="1" fill="none" fill-rule="evenodd" sketch:type="MSPage">
        <g id="tree_share" sketch:type="MSLayerGroup" stroke="#E8E8E8">
            <g id="Rectangle-190" sketch:type="MSShapeGroup">
                <rect x="0" y="0" width="24" height="24"></rect>
            </g>
            <g id="Oval-58-+-Path-64-+-Oval-58-+-Path-64-+-Oval-58-+-Path-64" transform="translate(3.000000, 1.285714)" stroke-width="0.5" fill="#000000" sketch:type="MSShapeGroup">
                <g id="Oval-58-+-Path-64" transform="translate(7.714286, 0.857143)">
                    <path d="M5.39917056,6.30857143 C7.14123446,6.30857143 8.55345628,4.89634961 8.55345628,3.15428571 C8.55345628,1.41222182 7.14123446,0 5.39917056,0 C3.65710667,0 2.24488485,1.41222182 2.24488485,3.15428571 C2.24488485,4.89634961 3.65710667,6.30857143 5.39917056,6.30857143 Z" id="Oval-58"></path>
                    <path d="M0.738605412,7.81569246 C3.17330199,6.76639784 8.06701435,7.01831314 9.9232045,7.75846301 C10.0089826,10.1968603 9.38699235,12.8999934 9.38699235,12.8999934 L7.41779718,14.1819066 L7.21769237,19.0105915 C7.21769237,19.0105915 5.36414561,20.0979509 3.43790557,18.9503221 C3.32040678,16.8037553 3.18982319,14.1936697 3.18982319,14.1936697 L1.16921404,12.823335 C1.16921404,12.823335 0.53043826,10.5107632 0.738605412,7.81569246 Z" id="Path-64"></path>
                </g>
                <g id="Oval-58-+-Path-64" transform="translate(0.000000, 0.857143)">
                    <path d="M5.39917056,6.30857143 C7.14123446,6.30857143 8.55345628,4.89634961 8.55345628,3.15428571 C8.55345628,1.41222182 7.14123446,0 5.39917056,0 C3.65710667,0 2.24488485,1.41222182 2.24488485,3.15428571 C2.24488485,4.89634961 3.65710667,6.30857143 5.39917056,6.30857143 Z" id="Oval-58"></path>
                    <path d="M0.738605412,7.81569246 C3.17330199,6.76639784 8.06701435,7.01831314 9.9232045,7.75846301 C10.0089826,10.1968603 9.38699235,12.8999934 9.38699235,12.8999934 L7.41779718,14.1819066 L7.21769237,19.0105915 C7.21769237,19.0105915 5.36414561,20.0979509 3.43790557,18.9503221 C3.32040678,16.8037553 3.18982319,14.1936697 3.18982319,14.1936697 L1.16921404,12.823335 C1.16921404,12.823335 0.53043826,10.5107632 0.738605412,7.81569246 Z" id="Path-64"></path>
                </g>
                <g id="Oval-58-+-Path-64" transform="translate(3.428571, 0.000000)">
                    <circle id="Oval-58" cx="5.86866366" cy="3.42857143" r="3.42857143"></circle>
                    <path d="M0.80283197,8.49531789 C3.44924129,7.35478026 8.76849386,7.62860124 10.7860918,8.43311197 C10.8793289,11.0835438 10.2032526,14.021732 10.2032526,14.021732 L8.06282302,15.4151158 L7.84531779,20.6636864 C7.84531779,20.6636864 5.83059306,21.8455988 3.73685388,20.5981762 C3.6091378,18.2649514 3.46719912,15.4279018 3.46719912,15.4279018 L1.27088482,13.9384076 C1.27088482,13.9384076 0.576563326,11.4247426 0.80283197,8.49531789 Z" id="Path-64"></path>
                </g>
            </g>
        </g>
    </g>
</svg>