<?xml version="1.0" encoding="UTF-8" standalone="no"?>
<svg width="49px" height="29px" viewBox="0 0 49 29" version="1.1" xmlns="http://www.w3.org/2000/svg" xmlns:xlink="http://www.w3.org/1999/xlink" xmlns:sketch="http://www.bohemiancoding.com/sketch/ns">
    <!-- Generator: Sketch 3.2.2 (9983) - http://www.bohemiancoding.com/sketch -->
    <title>undo</title>
    <desc>Created with Sketch.</desc>
    <defs></defs>
    <g id="Workplaces" stroke="none" stroke-width="1" fill="none" fill-rule="evenodd" sketch:type="MSPage">
        <g id="undo" sketch:type="MSLayerGroup" transform="translate(-7.000000, -19.000000)">
            <g id="Fill-8-+-Fill-9" transform="translate(7.496445, 18.975997)" fill="#000000" sketch:type="MSShapeGroup">
                <path d="M44.9124746,28.2725418 C43.2343526,28.2725418 41.8740499,26.912239 41.8740499,25.2341171 C41.8740499,18.9041669 39.7313528,16.7945886 38.1194685,15.7584858 C35.4672276,14.0533219 31.3614043,13.8345553 28.0805133,13.8345553 L4.59895961,13.8345553 C2.92083766,13.8345553 1.56053492,12.4742526 1.56053492,10.7961306 C1.56053492,9.11800866 2.92083766,7.75770592 4.59895961,7.75770592 L28.0805133,7.75770592 C32.4476411,7.75770592 37.4458497,8.10104791 41.4058286,10.6466401 C45.7489529,13.4386486 47.9508993,18.346616 47.9508993,25.2341171 C47.9508993,26.912239 46.5905965,28.2725418 44.9124746,28.2725418" id="Fill-8"></path>
                <path d="M12.8738054,22.0781053 C12.0980956,22.0781053 11.3223858,21.7830743 10.7295891,21.1924045 L0.298069462,10.8000806 L10.1288926,0.969561319 C11.3153974,-0.216943523 13.2390241,-0.217247365 14.4255289,0.969561319 C15.6123376,2.15606616 15.6123376,4.07999668 14.4255289,5.26650152 L8.90015361,10.7921807 L15.0183256,16.8872606 C16.2069573,18.0716385 16.2106034,19.9952652 15.0265293,21.1842008 C14.4328211,21.7800359 13.6534652,22.0781053 12.8738054,22.0781053" id="Fill-9"></path>
            </g>
            <rect id="Rectangle-290" sketch:type="MSShapeGroup" x="0" y="0.878296684" width="63" height="63"></rect>
        </g>
    </g>
</svg>